<svg width="107" height="119" viewBox="0 0 107 119" fill="none" xmlns="http://www.w3.org/2000/svg">
<path d="M95.1111 11.8889H89.1667V0H77.2778V11.8889H29.7222V0H17.8333V11.8889H11.8889C5.35 11.8889 0 17.2389 0 23.7778V107C0 113.539 5.35 118.889 11.8889 118.889H95.1111C101.65 118.889 107 113.539 107 107V23.7778C107 17.2389 101.65 11.8889 95.1111 11.8889ZM95.1111 107H11.8889V47.5556H95.1111V107ZM11.8889 35.6667V23.7778H95.1111V35.6667H11.8889ZM23.7778 59.4444H83.2222V71.3333H23.7778V59.4444ZM23.7778 83.2222H65.3889V95.1111H23.7778V83.2222Z" fill="#0C8D57"/>
</svg>
