<svg width="13" height="13" viewBox="0 0 13 13" fill="none" xmlns="http://www.w3.org/2000/svg">
<path d="M10.8393 3.17652H1.66458C1.0312 3.17652 0.517744 3.77171 0.517744 4.50591V11.1529C0.517744 11.8871 1.0312 12.4823 1.66458 12.4823H10.8393C11.4726 12.4823 11.9861 11.8871 11.9861 11.1529V4.50591C11.9861 3.77171 11.4726 3.17652 10.8393 3.17652Z" stroke="#004225" stroke-linecap="round" stroke-linejoin="round"/>
<path d="M8.54557 12.4823V1.84713C8.54557 1.49456 8.42474 1.15642 8.20967 0.907113C7.99459 0.657804 7.70289 0.517744 7.39873 0.517744H5.10506C4.8009 0.517744 4.5092 0.657804 4.29412 0.907113C4.07905 1.15642 3.95822 1.49456 3.95822 1.84713V12.4823" stroke="#004225" stroke-linecap="round" stroke-linejoin="round"/>
</svg>
