<svg width="32" height="32" viewBox="0 0 32 32" fill="none" xmlns="http://www.w3.org/2000/svg">
<path opacity="0.4" d="M11.4133 4.45334V23.56C10.96 23.5733 10.5067 23.68 10.1733 23.88L7.04001 25.6667C4.85335 26.92 3.05334 25.88 3.05334 23.3467V10.3733C3.05334 9.53334 3.65334 8.49334 4.40001 8.06667L10.1733 4.76001C10.5067 4.57334 10.96 4.46667 11.4133 4.45334Z" fill="#191D31"/>
<path d="M20.9733 8.44V27.5467C20.5067 27.56 20.0533 27.48 19.6933 27.3067L12.6933 23.8C12.3333 23.6267 11.88 23.5467 11.4133 23.56V4.45333C11.88 4.44 12.3333 4.52 12.6933 4.69333L19.6933 8.2C20.0533 8.37333 20.5067 8.45333 20.9733 8.44Z" fill="#191D31"/>
<path opacity="0.4" d="M29.3334 8.65334V21.6267C29.3334 22.4667 28.7334 23.5067 27.9867 23.9333L22.2134 27.24C21.8801 27.4267 21.4267 27.5333 20.9734 27.5467V8.44C21.4267 8.42667 21.8801 8.32 22.2134 8.12001L25.3467 6.33334C27.5334 5.08 29.3334 6.12 29.3334 8.65334Z" fill="#191D31"/>
</svg>
