<svg width="134" height="128" viewBox="0 0 134 128" fill="none" xmlns="http://www.w3.org/2000/svg">
<path d="M51.143 122.999C56.745 122.999 61.2863 118.458 61.2863 112.856C61.2863 107.254 56.745 102.713 51.143 102.713C45.541 102.713 40.9997 107.254 40.9997 112.856C40.9997 118.458 45.541 122.999 51.143 122.999Z" stroke="#0C8D57" stroke-width="10" stroke-linecap="round" stroke-linejoin="round"/>
<path d="M107.713 122.999C113.315 122.999 117.857 118.458 117.857 112.856C117.857 107.254 113.315 102.713 107.713 102.713C102.111 102.713 97.57 107.254 97.57 112.856C97.57 118.458 102.111 122.999 107.713 122.999Z" stroke="#0C8D57" stroke-width="10" stroke-linecap="round" stroke-linejoin="round"/>
<mask id="path-3-outside-1_1_154" maskUnits="userSpaceOnUse" x="0" y="0" width="134.015" height="98.0107" fill="black">
<rect fill="white" width="134.015" height="98.0107"/>
<path d="M10.0011 10.0011C18.0346 10.0011 30.5721 10.0011 30.5721 10.0011L44.3546 78.8625C44.8249 81.2302 46.113 83.3571 47.9934 84.8708C49.8738 86.3845 52.2266 87.1886 54.6401 87.1423H104.628C107.041 87.1886 109.394 86.3845 111.274 84.8708C113.155 83.3571 114.443 81.2302 114.913 78.8625L123.142 35.7148C123.142 35.7148 69.8571 35.7148 35.7148 35.7148"/>
</mask>
<path d="M10.0011 0C4.47764 0 0 4.47764 0 10.0011C0 15.5246 4.47764 20.0022 10.0011 20.0022V0ZM30.5721 10.0011L40.3787 8.03831C39.4432 3.36422 35.3389 0 30.5721 0V10.0011ZM44.3546 78.8625L54.1641 76.9141C54.1632 76.9093 54.1622 76.9045 54.1613 76.8997L44.3546 78.8625ZM54.6401 87.1423V77.1412C54.5763 77.1412 54.5124 77.1418 54.4485 77.1431L54.6401 87.1423ZM104.628 87.1423L104.819 77.1431C104.755 77.1418 104.692 77.1412 104.628 77.1412V87.1423ZM114.913 78.8625L124.723 80.8109C124.728 80.7859 124.732 80.761 124.737 80.736L114.913 78.8625ZM123.142 35.7148L132.966 37.5883C133.524 34.6605 132.747 31.6362 130.847 29.3397C128.947 27.0432 126.122 25.7137 123.142 25.7137V35.7148ZM35.7148 25.7137C30.1914 25.7137 25.7137 30.1914 25.7137 35.7148C25.7137 41.2383 30.1914 45.7159 35.7148 45.7159V25.7137ZM10.0011 20.0022C10.0168 20.0022 10.0325 20.0022 10.0482 20.0022C10.0639 20.0022 10.0797 20.0022 10.0954 20.0022C10.1112 20.0022 10.127 20.0022 10.1428 20.0022C10.1586 20.0022 10.1744 20.0022 10.1902 20.0022C10.206 20.0022 10.2219 20.0022 10.2377 20.0022C10.2536 20.0022 10.2695 20.0022 10.2854 20.0022C10.3012 20.0022 10.3172 20.0022 10.3331 20.0022C10.349 20.0022 10.3649 20.0022 10.3809 20.0022C10.3969 20.0022 10.4128 20.0022 10.4288 20.0022C10.4448 20.0022 10.4608 20.0022 10.4768 20.0022C10.4929 20.0022 10.5089 20.0022 10.5249 20.0022C10.541 20.0022 10.5571 20.0022 10.5732 20.0022C10.5892 20.0022 10.6053 20.0022 10.6215 20.0022C10.6376 20.0022 10.6537 20.0022 10.6698 20.0022C10.686 20.0022 10.7022 20.0022 10.7183 20.0022C10.7345 20.0022 10.7507 20.0022 10.7669 20.0022C10.7831 20.0022 10.7993 20.0022 10.8156 20.0022C10.8318 20.0022 10.8481 20.0022 10.8643 20.0022C10.8806 20.0022 10.8969 20.0022 10.9132 20.0022C10.9295 20.0022 10.9458 20.0022 10.9621 20.0022C10.9784 20.0022 10.9948 20.0022 11.0111 20.0022C11.0275 20.0022 11.0439 20.0022 11.0603 20.0022C11.0766 20.0022 11.093 20.0022 11.1095 20.0022C11.1259 20.0022 11.1423 20.0022 11.1587 20.0022C11.1752 20.0022 11.1916 20.0022 11.2081 20.0022C11.2246 20.0022 11.2411 20.0022 11.2576 20.0022C11.2741 20.0022 11.2906 20.0022 11.3071 20.0022C11.3236 20.0022 11.3402 20.0022 11.3567 20.0022C11.3733 20.0022 11.3898 20.0022 11.4064 20.0022C11.423 20.0022 11.4396 20.0022 11.4562 20.0022C11.4728 20.0022 11.4894 20.0022 11.5061 20.0022C11.5227 20.0022 11.5393 20.0022 11.556 20.0022C11.5727 20.0022 11.5893 20.0022 11.606 20.0022C11.6227 20.0022 11.6394 20.0022 11.6561 20.0022C11.6728 20.0022 11.6895 20.0022 11.7063 20.0022C11.723 20.0022 11.7398 20.0022 11.7565 20.0022C11.7733 20.0022 11.7901 20.0022 11.8069 20.0022C11.8236 20.0022 11.8405 20.0022 11.8573 20.0022C11.8741 20.0022 11.8909 20.0022 11.9077 20.0022C11.9246 20.0022 11.9414 20.0022 11.9583 20.0022C11.9751 20.0022 11.992 20.0022 12.0089 20.0022C12.0258 20.0022 12.0427 20.0022 12.0596 20.0022C12.0765 20.0022 12.0934 20.0022 12.1104 20.0022C12.1273 20.0022 12.1442 20.0022 12.1612 20.0022C12.1782 20.0022 12.1951 20.0022 12.2121 20.0022C12.2291 20.0022 12.2461 20.0022 12.2631 20.0022C12.2801 20.0022 12.2971 20.0022 12.3141 20.0022C12.3311 20.0022 12.3482 20.0022 12.3652 20.0022C12.3823 20.0022 12.3993 20.0022 12.4164 20.0022C12.4335 20.0022 12.4506 20.0022 12.4676 20.0022C12.4847 20.0022 12.5018 20.0022 12.5189 20.0022C12.5361 20.0022 12.5532 20.0022 12.5703 20.0022C12.5875 20.0022 12.6046 20.0022 12.6218 20.0022C12.6389 20.0022 12.6561 20.0022 12.6732 20.0022C12.6904 20.0022 12.7076 20.0022 12.7248 20.0022C12.742 20.0022 12.7592 20.0022 12.7764 20.0022C12.7936 20.0022 12.8109 20.0022 12.8281 20.0022C12.8453 20.0022 12.8626 20.0022 12.8798 20.0022C12.8971 20.0022 12.9144 20.0022 12.9316 20.0022C12.9489 20.0022 12.9662 20.0022 12.9835 20.0022C13.0008 20.0022 13.0181 20.0022 13.0354 20.0022C13.0527 20.0022 13.0701 20.0022 13.0874 20.0022C13.1047 20.0022 13.1221 20.0022 13.1394 20.0022C13.1568 20.0022 13.1741 20.0022 13.1915 20.0022C13.2089 20.0022 13.2262 20.0022 13.2436 20.0022C13.261 20.0022 13.2784 20.0022 13.2958 20.0022C13.3132 20.0022 13.3306 20.0022 13.3481 20.0022C13.3655 20.0022 13.3829 20.0022 13.4004 20.0022C13.4178 20.0022 13.4352 20.0022 13.4527 20.0022C13.4702 20.0022 13.4876 20.0022 13.5051 20.0022C13.5226 20.0022 13.54 20.0022 13.5575 20.0022C13.575 20.0022 13.5925 20.0022 13.61 20.0022C13.6275 20.0022 13.6451 20.0022 13.6626 20.0022C13.6801 20.0022 13.6976 20.0022 13.7152 20.0022C13.7327 20.0022 13.7503 20.0022 13.7678 20.0022C13.7854 20.0022 13.8029 20.0022 13.8205 20.0022C13.8381 20.0022 13.8556 20.0022 13.8732 20.0022C13.8908 20.0022 13.9084 20.0022 13.926 20.0022C13.9436 20.0022 13.9612 20.0022 13.9788 20.0022C13.9964 20.0022 14.014 20.0022 14.0317 20.0022C14.0493 20.0022 14.0669 20.0022 14.0846 20.0022C14.1022 20.0022 14.1199 20.0022 14.1375 20.0022C14.1552 20.0022 14.1728 20.0022 14.1905 20.0022C14.2082 20.0022 14.2258 20.0022 14.2435 20.0022C14.2612 20.0022 14.2789 20.0022 14.2966 20.0022C14.3143 20.0022 14.332 20.0022 14.3497 20.0022C14.3674 20.0022 14.3851 20.0022 14.4028 20.0022C14.4205 20.0022 14.4383 20.0022 14.456 20.0022C14.4737 20.0022 14.4915 20.0022 14.5092 20.0022C14.5269 20.0022 14.5447 20.0022 14.5624 20.0022C14.5802 20.0022 14.598 20.0022 14.6157 20.0022C14.6335 20.0022 14.6513 20.0022 14.669 20.0022C14.6868 20.0022 14.7046 20.0022 14.7224 20.0022C14.7402 20.0022 14.758 20.0022 14.7758 20.0022C14.7936 20.0022 14.8114 20.0022 14.8292 20.0022C14.847 20.0022 14.8648 20.0022 14.8826 20.0022C14.9004 20.0022 14.9183 20.0022 14.9361 20.0022C14.9539 20.0022 14.9718 20.0022 14.9896 20.0022C15.0074 20.0022 15.0253 20.0022 15.0431 20.0022C15.061 20.0022 15.0788 20.0022 15.0967 20.0022C15.1145 20.0022 15.1324 20.0022 15.1503 20.0022C15.1681 20.0022 15.186 20.0022 15.2039 20.0022C15.2218 20.0022 15.2396 20.0022 15.2575 20.0022C15.2754 20.0022 15.2933 20.0022 15.3112 20.0022C15.3291 20.0022 15.347 20.0022 15.3649 20.0022C15.3828 20.0022 15.4007 20.0022 15.4186 20.0022C15.4365 20.0022 15.4544 20.0022 15.4723 20.0022C15.4902 20.0022 15.5081 20.0022 15.5261 20.0022C15.544 20.0022 15.5619 20.0022 15.5798 20.0022C15.5978 20.0022 15.6157 20.0022 15.6336 20.0022C15.6515 20.0022 15.6695 20.0022 15.6874 20.0022C15.7054 20.0022 15.7233 20.0022 15.7413 20.0022C15.7592 20.0022 15.7772 20.0022 15.7951 20.0022C15.8131 20.0022 15.831 20.0022 15.849 20.0022C15.8669 20.0022 15.8849 20.0022 15.9029 20.0022C15.9208 20.0022 15.9388 20.0022 15.9567 20.0022C15.9747 20.0022 15.9927 20.0022 16.0107 20.0022C16.0286 20.0022 16.0466 20.0022 16.0646 20.0022C16.0826 20.0022 16.1005 20.0022 16.1185 20.0022C16.1365 20.0022 16.1545 20.0022 16.1725 20.0022C16.1905 20.0022 16.2084 20.0022 16.2264 20.0022C16.2444 20.0022 16.2624 20.0022 16.2804 20.0022C16.2984 20.0022 16.3164 20.0022 16.3344 20.0022C16.3524 20.0022 16.3704 20.0022 16.3884 20.0022C16.4064 20.0022 16.4244 20.0022 16.4424 20.0022C16.4604 20.0022 16.4784 20.0022 16.4964 20.0022C16.5144 20.0022 16.5324 20.0022 16.5504 20.0022C16.5684 20.0022 16.5864 20.0022 16.6044 20.0022C16.6224 20.0022 16.6405 20.0022 16.6585 20.0022C16.6765 20.0022 16.6945 20.0022 16.7125 20.0022C16.7305 20.0022 16.7485 20.0022 16.7665 20.0022C16.7845 20.0022 16.8026 20.0022 16.8206 20.0022C16.8386 20.0022 16.8566 20.0022 16.8746 20.0022C16.8926 20.0022 16.9106 20.0022 16.9287 20.0022C16.9467 20.0022 16.9647 20.0022 16.9827 20.0022C17.0007 20.0022 17.0187 20.0022 17.0368 20.0022C17.0548 20.0022 17.0728 20.0022 17.0908 20.0022C17.1088 20.0022 17.1268 20.0022 17.1448 20.0022C17.1629 20.0022 17.1809 20.0022 17.1989 20.0022C17.2169 20.0022 17.2349 20.0022 17.2529 20.0022C17.2709 20.0022 17.289 20.0022 17.307 20.0022C17.325 20.0022 17.343 20.0022 17.361 20.0022C17.379 20.0022 17.397 20.0022 17.415 20.0022C17.433 20.0022 17.451 20.0022 17.469 20.0022C17.487 20.0022 17.5051 20.0022 17.5231 20.0022C17.5411 20.0022 17.5591 20.0022 17.5771 20.0022C17.5951 20.0022 17.6131 20.0022 17.6311 20.0022C17.6491 20.0022 17.6671 20.0022 17.6851 20.0022C17.703 20.0022 17.721 20.0022 17.739 20.0022C17.757 20.0022 17.775 20.0022 17.793 20.0022C17.811 20.0022 17.829 20.0022 17.847 20.0022C17.8649 20.0022 17.8829 20.0022 17.9009 20.0022C17.9189 20.0022 17.9369 20.0022 17.9548 20.0022C17.9728 20.0022 17.9908 20.0022 18.0088 20.0022C18.0267 20.0022 18.0447 20.0022 18.0627 20.0022C18.0806 20.0022 18.0986 20.0022 18.1166 20.0022C18.1345 20.0022 18.1525 20.0022 18.1704 20.0022C18.1884 20.0022 18.2063 20.0022 18.2243 20.0022C18.2422 20.0022 18.2602 20.0022 18.2781 20.0022C18.2961 20.0022 18.314 20.0022 18.332 20.0022C18.3499 20.0022 18.3678 20.0022 18.3858 20.0022C18.4037 20.0022 18.4216 20.0022 18.4395 20.0022C18.4575 20.0022 18.4754 20.0022 18.4933 20.0022C18.5112 20.0022 18.5291 20.0022 18.5471 20.0022C18.565 20.0022 18.5829 20.0022 18.6008 20.0022C18.6187 20.0022 18.6366 20.0022 18.6545 20.0022C18.6724 20.0022 18.6903 20.0022 18.7081 20.0022C18.726 20.0022 18.7439 20.0022 18.7618 20.0022C18.7797 20.0022 18.7976 20.0022 18.8154 20.0022C18.8333 20.0022 18.8512 20.0022 18.869 20.0022C18.8869 20.0022 18.9047 20.0022 18.9226 20.0022C18.9405 20.0022 18.9583 20.0022 18.9762 20.0022C18.994 20.0022 19.0118 20.0022 19.0297 20.0022C19.0475 20.0022 19.0653 20.0022 19.0832 20.0022C19.101 20.0022 19.1188 20.0022 19.1366 20.0022C19.1544 20.0022 19.1722 20.0022 19.1901 20.0022C19.2079 20.0022 19.2257 20.0022 19.2435 20.0022C19.2612 20.0022 19.279 20.0022 19.2968 20.0022C19.3146 20.0022 19.3324 20.0022 19.3502 20.0022C19.3679 20.0022 19.3857 20.0022 19.4035 20.0022C19.4212 20.0022 19.439 20.0022 19.4567 20.0022C19.4745 20.0022 19.4922 20.0022 19.51 20.0022C19.5277 20.0022 19.5454 20.0022 19.5632 20.0022C19.5809 20.0022 19.5986 20.0022 19.6163 20.0022C19.634 20.0022 19.6517 20.0022 19.6694 20.0022C19.6872 20.0022 19.7048 20.0022 19.7225 20.0022C19.7402 20.0022 19.7579 20.0022 19.7756 20.0022C19.7933 20.0022 19.8109 20.0022 19.8286 20.0022C19.8463 20.0022 19.8639 20.0022 19.8816 20.0022C19.8992 20.0022 19.9169 20.0022 19.9345 20.0022C19.9521 20.0022 19.9698 20.0022 19.9874 20.0022C20.005 20.0022 20.0226 20.0022 20.0402 20.0022C20.0578 20.0022 20.0754 20.0022 20.093 20.0022C20.1106 20.0022 20.1282 20.0022 20.1458 20.0022C20.1634 20.0022 20.1809 20.0022 20.1985 20.0022C20.2161 20.0022 20.2336 20.0022 20.2512 20.0022C20.2687 20.0022 20.2862 20.0022 20.3038 20.0022C20.3213 20.0022 20.3388 20.0022 20.3564 20.0022C20.3739 20.0022 20.3914 20.0022 20.4089 20.0022C20.4264 20.0022 20.4439 20.0022 20.4614 20.0022C20.4788 20.0022 20.4963 20.0022 20.5138 20.0022C20.5313 20.0022 20.5487 20.0022 20.5662 20.0022C20.5836 20.0022 20.6011 20.0022 20.6185 20.0022C20.6359 20.0022 20.6533 20.0022 20.6708 20.0022C20.6882 20.0022 20.7056 20.0022 20.723 20.0022C20.7404 20.0022 20.7578 20.0022 20.7752 20.0022C20.7925 20.0022 20.8099 20.0022 20.8273 20.0022C20.8446 20.0022 20.862 20.0022 20.8793 20.0022C20.8967 20.0022 20.914 20.0022 20.9313 20.0022C20.9487 20.0022 20.966 20.0022 20.9833 20.0022C21.0006 20.0022 21.0179 20.0022 21.0352 20.0022C21.0525 20.0022 21.0698 20.0022 21.087 20.0022C21.1043 20.0022 21.1215 20.0022 21.1388 20.0022C21.156 20.0022 21.1733 20.0022 21.1905 20.0022C21.2077 20.0022 21.225 20.0022 21.2422 20.0022C21.2594 20.0022 21.2766 20.0022 21.2938 20.0022C21.311 20.0022 21.3281 20.0022 21.3453 20.0022C21.3625 20.0022 21.3796 20.0022 21.3968 20.0022C21.4139 20.0022 21.4311 20.0022 21.4482 20.0022C21.4653 20.0022 21.4824 20.0022 21.4995 20.0022C21.5166 20.0022 21.5337 20.0022 21.5508 20.0022C21.5679 20.0022 21.585 20.0022 21.602 20.0022C21.6191 20.0022 21.6361 20.0022 21.6532 20.0022C21.6702 20.0022 21.6873 20.0022 21.7043 20.0022C21.7213 20.0022 21.7383 20.0022 21.7553 20.0022C21.7723 20.0022 21.7893 20.0022 21.8062 20.0022C21.8232 20.0022 21.8402 20.0022 21.8571 20.0022C21.8741 20.0022 21.891 20.0022 21.9079 20.0022C21.9249 20.0022 21.9418 20.0022 21.9587 20.0022C21.9756 20.0022 21.9925 20.0022 22.0093 20.0022C22.0262 20.0022 22.0431 20.0022 22.0599 20.0022C22.0768 20.0022 22.0936 20.0022 22.1105 20.0022C22.1273 20.0022 22.1441 20.0022 22.1609 20.0022C22.1777 20.0022 22.1945 20.0022 22.2113 20.0022C22.2281 20.0022 22.2448 20.0022 22.2616 20.0022C22.2783 20.0022 22.2951 20.0022 22.3118 20.0022C22.3285 20.0022 22.3452 20.0022 22.3619 20.0022C22.3786 20.0022 22.3953 20.0022 22.412 20.0022C22.4287 20.0022 22.4454 20.0022 22.462 20.0022C22.4787 20.0022 22.4953 20.0022 22.5119 20.0022C22.5285 20.0022 22.5452 20.0022 22.5617 20.0022C22.5783 20.0022 22.5949 20.0022 22.6115 20.0022C22.6281 20.0022 22.6446 20.0022 22.6612 20.0022C22.6777 20.0022 22.6942 20.0022 22.7108 20.0022C22.7273 20.0022 22.7438 20.0022 22.7603 20.0022C22.7768 20.0022 22.7932 20.0022 22.8097 20.0022C22.8261 20.0022 22.8426 20.0022 22.859 20.0022C22.8755 20.0022 22.8919 20.0022 22.9083 20.0022C22.9247 20.0022 22.9411 20.0022 22.9574 20.0022C22.9738 20.0022 22.9902 20.0022 23.0065 20.0022C23.0229 20.0022 23.0392 20.0022 23.0555 20.0022C23.0718 20.0022 23.0881 20.0022 23.1044 20.0022C23.1207 20.0022 23.137 20.0022 23.1532 20.0022C23.1695 20.0022 23.1857 20.0022 23.202 20.0022C23.2182 20.0022 23.2344 20.0022 23.2506 20.0022C23.2668 20.0022 23.283 20.0022 23.2991 20.0022C23.3153 20.0022 23.3315 20.0022 23.3476 20.0022C23.3637 20.0022 23.3799 20.0022 23.396 20.0022C23.4121 20.0022 23.4282 20.0022 23.4442 20.0022C23.4603 20.0022 23.4764 20.0022 23.4924 20.0022C23.5084 20.0022 23.5245 20.0022 23.5405 20.0022C23.5565 20.0022 23.5725 20.0022 23.5885 20.0022C23.6044 20.0022 23.6204 20.0022 23.6363 20.0022C23.6523 20.0022 23.6682 20.0022 23.6841 20.0022C23.7 20.0022 23.7159 20.0022 23.7318 20.0022C23.7477 20.0022 23.7636 20.0022 23.7794 20.0022C23.7953 20.0022 23.8111 20.0022 23.8269 20.0022C23.8427 20.0022 23.8585 20.0022 23.8743 20.0022C23.8901 20.0022 23.9058 20.0022 23.9216 20.0022C23.9373 20.0022 23.9531 20.0022 23.9688 20.0022C23.9845 20.0022 24.0002 20.0022 24.0159 20.0022C24.0315 20.0022 24.0472 20.0022 24.0628 20.0022C24.0785 20.0022 24.0941 20.0022 24.1097 20.0022C24.1253 20.0022 24.1409 20.0022 24.1565 20.0022C24.1721 20.0022 24.1876 20.0022 24.2032 20.0022C24.2187 20.0022 24.2342 20.0022 24.2497 20.0022C24.2652 20.0022 24.2807 20.0022 24.2962 20.0022C24.3116 20.0022 24.3271 20.0022 24.3425 20.0022C24.3579 20.0022 24.3734 20.0022 24.3888 20.0022C24.4041 20.0022 24.4195 20.0022 24.4349 20.0022C24.4502 20.0022 24.4656 20.0022 24.4809 20.0022C24.4962 20.0022 24.5115 20.0022 24.5268 20.0022C24.5421 20.0022 24.5574 20.0022 24.5726 20.0022C24.5878 20.0022 24.6031 20.0022 24.6183 20.0022C24.6335 20.0022 24.6487 20.0022 24.6639 20.0022C24.679 20.0022 24.6942 20.0022 24.7093 20.0022C24.7244 20.0022 24.7396 20.0022 24.7546 20.0022C24.7697 20.0022 24.7848 20.0022 24.7999 20.0022C24.8149 20.0022 24.83 20.0022 24.845 20.0022C24.86 20.0022 24.875 20.0022 24.89 20.0022C24.905 20.0022 24.9199 20.0022 24.9348 20.0022C24.9498 20.0022 24.9647 20.0022 24.9796 20.0022C24.9945 20.0022 25.0094 20.0022 25.0242 20.0022C25.0391 20.0022 25.0539 20.0022 25.0688 20.0022C25.0836 20.0022 25.0984 20.0022 25.1131 20.0022C25.1279 20.0022 25.1427 20.0022 25.1574 20.0022C25.1722 20.0022 25.1869 20.0022 25.2016 20.0022C25.2163 20.0022 25.2309 20.0022 25.2456 20.0022C25.2603 20.0022 25.2749 20.0022 25.2895 20.0022C25.3041 20.0022 25.3187 20.0022 25.3333 20.0022C25.3479 20.0022 25.3624 20.0022 25.3769 20.0022C25.3915 20.0022 25.406 20.0022 25.4205 20.0022C25.4349 20.0022 25.4494 20.0022 25.4639 20.0022C25.4783 20.0022 25.4927 20.0022 25.5071 20.0022C25.5215 20.0022 25.5359 20.0022 25.5503 20.0022C25.5646 20.0022 25.579 20.0022 25.5933 20.0022C25.6076 20.0022 25.6219 20.0022 25.6362 20.0022C25.6505 20.0022 25.6647 20.0022 25.6789 20.0022C25.6932 20.0022 25.7074 20.0022 25.7216 20.0022C25.7357 20.0022 25.7499 20.0022 25.764 20.0022C25.7782 20.0022 25.7923 20.0022 25.8064 20.0022C25.8205 20.0022 25.8346 20.0022 25.8486 20.0022C25.8627 20.0022 25.8767 20.0022 25.8907 20.0022C25.9047 20.0022 25.9187 20.0022 25.9327 20.0022C25.9466 20.0022 25.9606 20.0022 25.9745 20.0022C25.9884 20.0022 26.0023 20.0022 26.0162 20.0022C26.03 20.0022 26.0439 20.0022 26.0577 20.0022C26.0715 20.0022 26.0853 20.0022 26.0991 20.0022C26.1129 20.0022 26.1266 20.0022 26.1404 20.0022C26.1541 20.0022 26.1678 20.0022 26.1815 20.0022C26.1952 20.0022 26.2088 20.0022 26.2225 20.0022C26.2361 20.0022 26.2497 20.0022 26.2633 20.0022C26.2769 20.0022 26.2905 20.0022 26.304 20.0022C26.3176 20.0022 26.3311 20.0022 26.3446 20.0022C26.3581 20.0022 26.3716 20.0022 26.385 20.0022C26.3984 20.0022 26.4119 20.0022 26.4253 20.0022C26.4387 20.0022 26.452 20.0022 26.4654 20.0022C26.4787 20.0022 26.4921 20.0022 26.5054 20.0022C26.5187 20.0022 26.5319 20.0022 26.5452 20.0022C26.5585 20.0022 26.5717 20.0022 26.5849 20.0022C26.5981 20.0022 26.6113 20.0022 26.6244 20.0022C26.6376 20.0022 26.6507 20.0022 26.6638 20.0022C26.6769 20.0022 26.69 20.0022 26.703 20.0022C26.7161 20.0022 26.7291 20.0022 26.7421 20.0022C26.7551 20.0022 26.7681 20.0022 26.7811 20.0022C26.794 20.0022 26.8069 20.0022 26.8198 20.0022C26.8327 20.0022 26.8456 20.0022 26.8585 20.0022C26.8713 20.0022 26.8842 20.0022 26.897 20.0022C26.9098 20.0022 26.9225 20.0022 26.9353 20.0022C26.948 20.0022 26.9607 20.0022 26.9734 20.0022C26.9861 20.0022 26.9988 20.0022 27.0114 20.0022C27.0241 20.0022 27.0367 20.0022 27.0493 20.0022C27.0619 20.0022 27.0745 20.0022 27.087 20.0022C27.0995 20.0022 27.1121 20.0022 27.1245 20.0022C27.137 20.0022 27.1495 20.0022 27.1619 20.0022C27.1743 20.0022 27.1868 20.0022 27.1991 20.0022C27.2115 20.0022 27.2239 20.0022 27.2362 20.0022C27.2485 20.0022 27.2608 20.0022 27.2731 20.0022C27.2854 20.0022 27.2976 20.0022 27.3098 20.0022C27.322 20.0022 27.3342 20.0022 27.3464 20.0022C27.3586 20.0022 27.3707 20.0022 27.3828 20.0022C27.3949 20.0022 27.407 20.0022 27.4191 20.0022C27.4311 20.0022 27.4431 20.0022 27.4551 20.0022C27.4671 20.0022 27.4791 20.0022 27.491 20.0022C27.503 20.0022 27.5149 20.0022 27.5268 20.0022C27.5387 20.0022 27.5505 20.0022 27.5624 20.0022C27.5742 20.0022 27.586 20.0022 27.5978 20.0022C27.6096 20.0022 27.6213 20.0022 27.633 20.0022C27.6447 20.0022 27.6564 20.0022 27.6681 20.0022C27.6798 20.0022 27.6914 20.0022 27.703 20.0022C27.7146 20.0022 27.7262 20.0022 27.7377 20.0022C27.7493 20.0022 27.7608 20.0022 27.7723 20.0022C27.7838 20.0022 27.7953 20.0022 27.8067 20.0022C27.8181 20.0022 27.8295 20.0022 27.8409 20.0022C27.8523 20.0022 27.8636 20.0022 27.8749 20.0022C27.8863 20.0022 27.8975 20.0022 27.9088 20.0022C27.9201 20.0022 27.9313 20.0022 27.9425 20.0022C27.9537 20.0022 27.9649 20.0022 27.976 20.0022C27.9871 20.0022 27.9983 20.0022 28.0093 20.0022C28.0204 20.0022 28.0315 20.0022 28.0425 20.0022C28.0535 20.0022 28.0645 20.0022 28.0755 20.0022C28.0864 20.0022 28.0974 20.0022 28.1083 20.0022C28.1192 20.0022 28.13 20.0022 28.1409 20.0022C28.1517 20.0022 28.1625 20.0022 28.1733 20.0022C28.1841 20.0022 28.1949 20.0022 28.2056 20.0022C28.2163 20.0022 28.227 20.0022 28.2377 20.0022C28.2483 20.0022 28.2589 20.0022 28.2695 20.0022C28.2801 20.0022 28.2907 20.0022 28.3013 20.0022C28.3118 20.0022 28.3223 20.0022 28.3328 20.0022C28.3432 20.0022 28.3537 20.0022 28.3641 20.0022C28.3745 20.0022 28.3849 20.0022 28.3953 20.0022C28.4056 20.0022 28.4159 20.0022 28.4262 20.0022C28.4365 20.0022 28.4468 20.0022 28.457 20.0022C28.4672 20.0022 28.4774 20.0022 28.4876 20.0022C28.4977 20.0022 28.5079 20.0022 28.518 20.0022C28.5281 20.0022 28.5381 20.0022 28.5482 20.0022C28.5582 20.0022 28.5682 20.0022 28.5782 20.0022C28.5882 20.0022 28.5981 20.0022 28.608 20.0022C28.6179 20.0022 28.6278 20.0022 28.6376 20.0022C28.6475 20.0022 28.6573 20.0022 28.6671 20.0022C28.6769 20.0022 28.6866 20.0022 28.6963 20.0022C28.706 20.0022 28.7157 20.0022 28.7254 20.0022C28.735 20.0022 28.7446 20.0022 28.7542 20.0022C28.7638 20.0022 28.7734 20.0022 28.7829 20.0022C28.7924 20.0022 28.8019 20.0022 28.8113 20.0022C28.8208 20.0022 28.8302 20.0022 28.8396 20.0022C28.849 20.0022 28.8583 20.0022 28.8677 20.0022C28.877 20.0022 28.8863 20.0022 28.8955 20.0022C28.9048 20.0022 28.914 20.0022 28.9232 20.0022C28.9324 20.0022 28.9415 20.0022 28.9507 20.0022C28.9598 20.0022 28.9689 20.0022 28.9779 20.0022C28.987 20.0022 28.996 20.0022 29.005 20.0022C29.014 20.0022 29.0229 20.0022 29.0318 20.0022C29.0407 20.0022 29.0496 20.0022 29.0585 20.0022C29.0673 20.0022 29.0761 20.0022 29.0849 20.0022C29.0937 20.0022 29.1025 20.0022 29.1112 20.0022C29.1199 20.0022 29.1286 20.0022 29.1372 20.0022C29.1458 20.0022 29.1545 20.0022 29.163 20.0022C29.1716 20.0022 29.1801 20.0022 29.1886 20.0022C29.1972 20.0022 29.2056 20.0022 29.2141 20.0022C29.2225 20.0022 29.2309 20.0022 29.2393 20.0022C29.2476 20.0022 29.256 20.0022 29.2643 20.0022C29.2725 20.0022 29.2808 20.0022 29.289 20.0022C29.2973 20.0022 29.3054 20.0022 29.3136 20.0022C29.3218 20.0022 29.3299 20.0022 29.338 20.0022C29.346 20.0022 29.3541 20.0022 29.3621 20.0022C29.3701 20.0022 29.3781 20.0022 29.386 20.0022C29.394 20.0022 29.4019 20.0022 29.4098 20.0022C29.4176 20.0022 29.4255 20.0022 29.4333 20.0022C29.4411 20.0022 29.4488 20.0022 29.4565 20.0022C29.4643 20.0022 29.472 20.0022 29.4796 20.0022C29.4873 20.0022 29.4949 20.0022 29.5025 20.0022C29.51 20.0022 29.5176 20.0022 29.5251 20.0022C29.5326 20.0022 29.5401 20.0022 29.5475 20.0022C29.5549 20.0022 29.5623 20.0022 29.5697 20.0022C29.5771 20.0022 29.5844 20.0022 29.5917 20.0022C29.599 20.0022 29.6062 20.0022 29.6134 20.0022C29.6206 20.0022 29.6278 20.0022 29.6349 20.0022C29.6421 20.0022 29.6492 20.0022 29.6563 20.0022C29.6633 20.0022 29.6703 20.0022 29.6773 20.0022C29.6843 20.0022 29.6913 20.0022 29.6982 20.0022C29.7051 20.0022 29.712 20.0022 29.7188 20.0022C29.7257 20.0022 29.7325 20.0022 29.7392 20.0022C29.746 20.0022 29.7527 20.0022 29.7594 20.0022C29.7661 20.0022 29.7727 20.0022 29.7794 20.0022C29.786 20.0022 29.7925 20.0022 29.7991 20.0022C29.8056 20.0022 29.8121 20.0022 29.8186 20.0022C29.825 20.0022 29.8315 20.0022 29.8378 20.0022C29.8442 20.0022 29.8506 20.0022 29.8569 20.0022C29.8632 20.0022 29.8694 20.0022 29.8757 20.0022C29.8819 20.0022 29.8881 20.0022 29.8942 20.0022C29.9004 20.0022 29.9065 20.0022 29.9126 20.0022C29.9187 20.0022 29.9247 20.0022 29.9307 20.0022C29.9367 20.0022 29.9426 20.0022 29.9486 20.0022C29.9545 20.0022 29.9604 20.0022 29.9662 20.0022C29.972 20.0022 29.9778 20.0022 29.9836 20.0022C29.9894 20.0022 29.9951 20.0022 30.0008 20.0022C30.0064 20.0022 30.0121 20.0022 30.0177 20.0022C30.0233 20.0022 30.0288 20.0022 30.0344 20.0022C30.0399 20.0022 30.0454 20.0022 30.0508 20.0022C30.0563 20.0022 30.0617 20.0022 30.067 20.0022C30.0724 20.0022 30.0777 20.0022 30.083 20.0022C30.0883 20.0022 30.0935 20.0022 30.0987 20.0022C30.1039 20.0022 30.1091 20.0022 30.1142 20.0022C30.1193 20.0022 30.1244 20.0022 30.1294 20.0022C30.1345 20.0022 30.1395 20.0022 30.1444 20.0022C30.1494 20.0022 30.1543 20.0022 30.1592 20.0022C30.1641 20.0022 30.1689 20.0022 30.1737 20.0022C30.1785 20.0022 30.1832 20.0022 30.188 20.0022C30.1927 20.0022 30.1973 20.0022 30.202 20.0022C30.2066 20.0022 30.2112 20.0022 30.2157 20.0022C30.2203 20.0022 30.2248 20.0022 30.2293 20.0022C30.2337 20.0022 30.2381 20.0022 30.2425 20.0022C30.2469 20.0022 30.2513 20.0022 30.2556 20.0022C30.2598 20.0022 30.2641 20.0022 30.2683 20.0022C30.2725 20.0022 30.2767 20.0022 30.2808 20.0022C30.285 20.0022 30.2891 20.0022 30.2931 20.0022C30.2972 20.0022 30.3012 20.0022 30.3051 20.0022C30.3091 20.0022 30.313 20.0022 30.3169 20.0022C30.3208 20.0022 30.3246 20.0022 30.3284 20.0022C30.3322 20.0022 30.3359 20.0022 30.3396 20.0022C30.3434 20.0022 30.347 20.0022 30.3506 20.0022C30.3543 20.0022 30.3578 20.0022 30.3614 20.0022C30.3649 20.0022 30.3684 20.0022 30.3719 20.0022C30.3753 20.0022 30.3787 20.0022 30.3821 20.0022C30.3855 20.0022 30.3888 20.0022 30.3921 20.0022C30.3953 20.0022 30.3986 20.0022 30.4018 20.0022C30.405 20.0022 30.4081 20.0022 30.4112 20.0022C30.4143 20.0022 30.4174 20.0022 30.4204 20.0022C30.4234 20.0022 30.4264 20.0022 30.4293 20.0022C30.4323 20.0022 30.4351 20.0022 30.438 20.0022C30.4408 20.0022 30.4436 20.0022 30.4464 20.0022C30.4491 20.0022 30.4519 20.0022 30.4545 20.0022C30.4572 20.0022 30.4598 20.0022 30.4624 20.0022C30.465 20.0022 30.4675 20.0022 30.47 20.0022C30.4725 20.0022 30.4749 20.0022 30.4773 20.0022C30.4797 20.0022 30.4821 20.0022 30.4844 20.0022C30.4867 20.0022 30.489 20.0022 30.4912 20.0022C30.4934 20.0022 30.4956 20.0022 30.4977 20.0022C30.4999 20.0022 30.502 20.0022 30.504 20.0022C30.506 20.0022 30.508 20.0022 30.51 20.0022C30.5119 20.0022 30.5139 20.0022 30.5157 20.0022C30.5176 20.0022 30.5194 20.0022 30.5212 20.0022C30.5229 20.0022 30.5247 20.0022 30.5263 20.0022C30.528 20.0022 30.5297 20.0022 30.5312 20.0022C30.5328 20.0022 30.5344 20.0022 30.5359 20.0022C30.5374 20.0022 30.5388 20.0022 30.5402 20.0022C30.5416 20.0022 30.543 20.0022 30.5443 20.0022C30.5456 20.0022 30.5469 20.0022 30.5481 20.0022C30.5493 20.0022 30.5505 20.0022 30.5516 20.0022C30.5528 20.0022 30.5539 20.0022 30.5549 20.0022C30.5559 20.0022 30.5569 20.0022 30.5579 20.0022C30.5588 20.0022 30.5597 20.0022 30.5606 20.0022C30.5614 20.0022 30.5622 20.0022 30.563 20.0022C30.5637 20.0022 30.5644 20.0022 30.5651 20.0022C30.5658 20.0022 30.5664 20.0022 30.567 20.0022C30.5675 20.0022 30.568 20.0022 30.5685 20.0022C30.569 20.0022 30.5694 20.0022 30.5698 20.0022C30.5702 20.0022 30.5705 20.0022 30.5708 20.0022C30.5711 20.0022 30.5713 20.0022 30.5715 20.0022C30.5717 20.0022 30.5718 20.0022 30.5719 20.0022C30.572 20.0022 30.5721 20.0022 30.5721 10.0011C30.5721 0 30.572 0 30.5719 0C30.5718 0 30.5717 0 30.5715 0C30.5713 0 30.5711 0 30.5708 0C30.5705 0 30.5702 0 30.5698 0C30.5694 0 30.569 0 30.5685 0C30.568 0 30.5675 0 30.567 0C30.5664 0 30.5658 0 30.5651 0C30.5644 0 30.5637 0 30.563 0C30.5622 0 30.5614 0 30.5606 0C30.5597 0 30.5588 0 30.5579 0C30.5569 0 30.5559 0 30.5549 0C30.5539 0 30.5528 0 30.5516 0C30.5505 0 30.5493 0 30.5481 0C30.5469 0 30.5456 0 30.5443 0C30.543 0 30.5416 0 30.5402 0C30.5388 0 30.5374 0 30.5359 0C30.5344 0 30.5328 0 30.5312 0C30.5297 0 30.528 0 30.5263 0C30.5247 0 30.5229 0 30.5212 0C30.5194 0 30.5176 0 30.5157 0C30.5139 0 30.5119 0 30.51 0C30.508 0 30.506 0 30.504 0C30.502 0 30.4999 0 30.4977 0C30.4956 0 30.4934 0 30.4912 0C30.489 0 30.4867 0 30.4844 0C30.4821 0 30.4797 0 30.4773 0C30.4749 0 30.4725 0 30.47 0C30.4675 0 30.465 0 30.4624 0C30.4598 0 30.4572 0 30.4545 0C30.4519 0 30.4491 0 30.4464 0C30.4436 0 30.4408 0 30.438 0C30.4351 0 30.4323 0 30.4293 0C30.4264 0 30.4234 0 30.4204 0C30.4174 0 30.4143 0 30.4112 0C30.4081 0 30.405 0 30.4018 0C30.3986 0 30.3953 0 30.3921 0C30.3888 0 30.3855 0 30.3821 0C30.3787 0 30.3753 0 30.3719 0C30.3684 0 30.3649 0 30.3614 0C30.3578 0 30.3543 0 30.3506 0C30.347 0 30.3434 0 30.3396 0C30.3359 0 30.3322 0 30.3284 0C30.3246 0 30.3208 0 30.3169 0C30.313 0 30.3091 0 30.3051 0C30.3012 0 30.2972 0 30.2931 0C30.2891 0 30.285 0 30.2808 0C30.2767 0 30.2725 0 30.2683 0C30.2641 0 30.2598 0 30.2556 0C30.2513 0 30.2469 0 30.2425 0C30.2381 0 30.2337 0 30.2293 0C30.2248 0 30.2203 0 30.2157 0C30.2112 0 30.2066 0 30.202 0C30.1973 0 30.1927 0 30.188 0C30.1832 0 30.1785 0 30.1737 0C30.1689 0 30.1641 0 30.1592 0C30.1543 0 30.1494 0 30.1444 0C30.1395 0 30.1345 0 30.1294 0C30.1244 0 30.1193 0 30.1142 0C30.1091 0 30.1039 0 30.0987 0C30.0935 0 30.0883 0 30.083 0C30.0777 0 30.0724 0 30.067 0C30.0617 0 30.0563 0 30.0508 0C30.0454 0 30.0399 0 30.0344 0C30.0288 0 30.0233 0 30.0177 0C30.0121 0 30.0064 0 30.0008 0C29.9951 0 29.9894 0 29.9836 0C29.9778 0 29.972 0 29.9662 0C29.9604 0 29.9545 0 29.9486 0C29.9426 0 29.9367 0 29.9307 0C29.9247 0 29.9187 0 29.9126 0C29.9065 0 29.9004 0 29.8942 0C29.8881 0 29.8819 0 29.8757 0C29.8694 0 29.8632 0 29.8569 0C29.8506 0 29.8442 0 29.8378 0C29.8315 0 29.825 0 29.8186 0C29.8121 0 29.8056 0 29.7991 0C29.7925 0 29.786 0 29.7794 0C29.7727 0 29.7661 0 29.7594 0C29.7527 0 29.746 0 29.7392 0C29.7325 0 29.7257 0 29.7188 0C29.712 0 29.7051 0 29.6982 0C29.6913 0 29.6843 0 29.6773 0C29.6703 0 29.6633 0 29.6563 0C29.6492 0 29.6421 0 29.6349 0C29.6278 0 29.6206 0 29.6134 0C29.6062 0 29.599 0 29.5917 0C29.5844 0 29.5771 0 29.5697 0C29.5623 0 29.5549 0 29.5475 0C29.5401 0 29.5326 0 29.5251 0C29.5176 0 29.51 0 29.5025 0C29.4949 0 29.4873 0 29.4796 0C29.472 0 29.4643 0 29.4565 0C29.4488 0 29.4411 0 29.4333 0C29.4255 0 29.4176 0 29.4098 0C29.4019 0 29.394 0 29.386 0C29.3781 0 29.3701 0 29.3621 0C29.3541 0 29.346 0 29.338 0C29.3299 0 29.3218 0 29.3136 0C29.3054 0 29.2973 0 29.289 0C29.2808 0 29.2725 0 29.2643 0C29.256 0 29.2476 0 29.2393 0C29.2309 0 29.2225 0 29.2141 0C29.2056 0 29.1972 0 29.1886 0C29.1801 0 29.1716 0 29.163 0C29.1545 0 29.1458 0 29.1372 0C29.1286 0 29.1199 0 29.1112 0C29.1025 0 29.0937 0 29.0849 0C29.0761 0 29.0673 0 29.0585 0C29.0496 0 29.0407 0 29.0318 0C29.0229 0 29.014 0 29.005 0C28.996 0 28.987 0 28.9779 0C28.9689 0 28.9598 0 28.9507 0C28.9415 0 28.9324 0 28.9232 0C28.914 0 28.9048 0 28.8955 0C28.8863 0 28.877 0 28.8677 0C28.8583 0 28.849 0 28.8396 0C28.8302 0 28.8208 0 28.8113 0C28.8019 0 28.7924 0 28.7829 0C28.7734 0 28.7638 0 28.7542 0C28.7446 0 28.735 0 28.7254 0C28.7157 0 28.706 0 28.6963 0C28.6866 0 28.6769 0 28.6671 0C28.6573 0 28.6475 0 28.6376 0C28.6278 0 28.6179 0 28.608 0C28.5981 0 28.5882 0 28.5782 0C28.5682 0 28.5582 0 28.5482 0C28.5381 0 28.5281 0 28.518 0C28.5079 0 28.4977 0 28.4876 0C28.4774 0 28.4672 0 28.457 0C28.4468 0 28.4365 0 28.4262 0C28.4159 0 28.4056 0 28.3953 0C28.3849 0 28.3745 0 28.3641 0C28.3537 0 28.3432 0 28.3328 0C28.3223 0 28.3118 0 28.3013 0C28.2907 0 28.2801 0 28.2695 0C28.2589 0 28.2483 0 28.2377 0C28.227 0 28.2163 0 28.2056 0C28.1949 0 28.1841 0 28.1733 0C28.1625 0 28.1517 0 28.1409 0C28.13 0 28.1192 0 28.1083 0C28.0974 0 28.0864 0 28.0755 0C28.0645 0 28.0535 0 28.0425 0C28.0315 0 28.0204 0 28.0093 0C27.9983 0 27.9871 0 27.976 0C27.9649 0 27.9537 0 27.9425 0C27.9313 0 27.9201 0 27.9088 0C27.8975 0 27.8863 0 27.8749 0C27.8636 0 27.8523 0 27.8409 0C27.8295 0 27.8181 0 27.8067 0C27.7953 0 27.7838 0 27.7723 0C27.7608 0 27.7493 0 27.7377 0C27.7262 0 27.7146 0 27.703 0C27.6914 0 27.6798 0 27.6681 0C27.6564 0 27.6447 0 27.633 0C27.6213 0 27.6096 0 27.5978 0C27.586 0 27.5742 0 27.5624 0C27.5505 0 27.5387 0 27.5268 0C27.5149 0 27.503 0 27.491 0C27.4791 0 27.4671 0 27.4551 0C27.4431 0 27.4311 0 27.4191 0C27.407 0 27.3949 0 27.3828 0C27.3707 0 27.3586 0 27.3464 0C27.3342 0 27.322 0 27.3098 0C27.2976 0 27.2854 0 27.2731 0C27.2608 0 27.2485 0 27.2362 0C27.2239 0 27.2115 0 27.1991 0C27.1868 0 27.1743 0 27.1619 0C27.1495 0 27.137 0 27.1245 0C27.1121 0 27.0995 0 27.087 0C27.0745 0 27.0619 0 27.0493 0C27.0367 0 27.0241 0 27.0114 0C26.9988 0 26.9861 0 26.9734 0C26.9607 0 26.948 0 26.9353 0C26.9225 0 26.9098 0 26.897 0C26.8842 0 26.8713 0 26.8585 0C26.8456 0 26.8327 0 26.8198 0C26.8069 0 26.794 0 26.7811 0C26.7681 0 26.7551 0 26.7421 0C26.7291 0 26.7161 0 26.703 0C26.69 0 26.6769 0 26.6638 0C26.6507 0 26.6376 0 26.6244 0C26.6113 0 26.5981 0 26.5849 0C26.5717 0 26.5585 0 26.5452 0C26.5319 0 26.5187 0 26.5054 0C26.4921 0 26.4787 0 26.4654 0C26.452 0 26.4387 0 26.4253 0C26.4119 0 26.3984 0 26.385 0C26.3716 0 26.3581 0 26.3446 0C26.3311 0 26.3176 0 26.304 0C26.2905 0 26.2769 0 26.2633 0C26.2497 0 26.2361 0 26.2225 0C26.2088 0 26.1952 0 26.1815 0C26.1678 0 26.1541 0 26.1404 0C26.1266 0 26.1129 0 26.0991 0C26.0853 0 26.0715 0 26.0577 0C26.0439 0 26.03 0 26.0162 0C26.0023 0 25.9884 0 25.9745 0C25.9606 0 25.9466 0 25.9327 0C25.9187 0 25.9047 0 25.8907 0C25.8767 0 25.8627 0 25.8486 0C25.8346 0 25.8205 0 25.8064 0C25.7923 0 25.7782 0 25.764 0C25.7499 0 25.7357 0 25.7216 0C25.7074 0 25.6932 0 25.6789 0C25.6647 0 25.6505 0 25.6362 0C25.6219 0 25.6076 0 25.5933 0C25.579 0 25.5646 0 25.5503 0C25.5359 0 25.5215 0 25.5071 0C25.4927 0 25.4783 0 25.4639 0C25.4494 0 25.4349 0 25.4205 0C25.406 0 25.3915 0 25.3769 0C25.3624 0 25.3479 0 25.3333 0C25.3187 0 25.3041 0 25.2895 0C25.2749 0 25.2603 0 25.2456 0C25.2309 0 25.2163 0 25.2016 0C25.1869 0 25.1722 0 25.1574 0C25.1427 0 25.1279 0 25.1131 0C25.0984 0 25.0836 0 25.0688 0C25.0539 0 25.0391 0 25.0242 0C25.0094 0 24.9945 0 24.9796 0C24.9647 0 24.9498 0 24.9348 0C24.9199 0 24.905 0 24.89 0C24.875 0 24.86 0 24.845 0C24.83 0 24.8149 0 24.7999 0C24.7848 0 24.7697 0 24.7546 0C24.7396 0 24.7244 0 24.7093 0C24.6942 0 24.679 0 24.6639 0C24.6487 0 24.6335 0 24.6183 0C24.6031 0 24.5878 0 24.5726 0C24.5574 0 24.5421 0 24.5268 0C24.5115 0 24.4962 0 24.4809 0C24.4656 0 24.4502 0 24.4349 0C24.4195 0 24.4041 0 24.3888 0C24.3734 0 24.3579 0 24.3425 0C24.3271 0 24.3116 0 24.2962 0C24.2807 0 24.2652 0 24.2497 0C24.2342 0 24.2187 0 24.2032 0C24.1876 0 24.1721 0 24.1565 0C24.1409 0 24.1253 0 24.1097 0C24.0941 0 24.0785 0 24.0628 0C24.0472 0 24.0315 0 24.0159 0C24.0002 0 23.9845 0 23.9688 0C23.9531 0 23.9373 0 23.9216 0C23.9058 0 23.8901 0 23.8743 0C23.8585 0 23.8427 0 23.8269 0C23.8111 0 23.7953 0 23.7794 0C23.7636 0 23.7477 0 23.7318 0C23.7159 0 23.7 0 23.6841 0C23.6682 0 23.6523 0 23.6363 0C23.6204 0 23.6044 0 23.5885 0C23.5725 0 23.5565 0 23.5405 0C23.5245 0 23.5084 0 23.4924 0C23.4764 0 23.4603 0 23.4442 0C23.4282 0 23.4121 0 23.396 0C23.3799 0 23.3637 0 23.3476 0C23.3315 0 23.3153 0 23.2991 0C23.283 0 23.2668 0 23.2506 0C23.2344 0 23.2182 0 23.202 0C23.1857 0 23.1695 0 23.1532 0C23.137 0 23.1207 0 23.1044 0C23.0881 0 23.0718 0 23.0555 0C23.0392 0 23.0229 0 23.0065 0C22.9902 0 22.9738 0 22.9574 0C22.9411 0 22.9247 0 22.9083 0C22.8919 0 22.8755 0 22.859 0C22.8426 0 22.8261 0 22.8097 0C22.7932 0 22.7768 0 22.7603 0C22.7438 0 22.7273 0 22.7108 0C22.6942 0 22.6777 0 22.6612 0C22.6446 0 22.6281 0 22.6115 0C22.5949 0 22.5783 0 22.5617 0C22.5452 0 22.5285 0 22.5119 0C22.4953 0 22.4787 0 22.462 0C22.4454 0 22.4287 0 22.412 0C22.3953 0 22.3786 0 22.3619 0C22.3452 0 22.3285 0 22.3118 0C22.2951 0 22.2783 0 22.2616 0C22.2448 0 22.2281 0 22.2113 0C22.1945 0 22.1777 0 22.1609 0C22.1441 0 22.1273 0 22.1105 0C22.0936 0 22.0768 0 22.0599 0C22.0431 0 22.0262 0 22.0093 0C21.9925 0 21.9756 0 21.9587 0C21.9418 0 21.9249 0 21.9079 0C21.891 0 21.8741 0 21.8571 0C21.8402 0 21.8232 0 21.8062 0C21.7893 0 21.7723 0 21.7553 0C21.7383 0 21.7213 0 21.7043 0C21.6873 0 21.6702 0 21.6532 0C21.6361 0 21.6191 0 21.602 0C21.585 0 21.5679 0 21.5508 0C21.5337 0 21.5166 0 21.4995 0C21.4824 0 21.4653 0 21.4482 0C21.4311 0 21.4139 0 21.3968 0C21.3796 0 21.3625 0 21.3453 0C21.3281 0 21.311 0 21.2938 0C21.2766 0 21.2594 0 21.2422 0C21.225 0 21.2077 0 21.1905 0C21.1733 0 21.156 0 21.1388 0C21.1215 0 21.1043 0 21.087 0C21.0698 0 21.0525 0 21.0352 0C21.0179 0 21.0006 0 20.9833 0C20.966 0 20.9487 0 20.9313 0C20.914 0 20.8967 0 20.8793 0C20.862 0 20.8446 0 20.8273 0C20.8099 0 20.7925 0 20.7752 0C20.7578 0 20.7404 0 20.723 0C20.7056 0 20.6882 0 20.6708 0C20.6533 0 20.6359 0 20.6185 0C20.6011 0 20.5836 0 20.5662 0C20.5487 0 20.5313 0 20.5138 0C20.4963 0 20.4788 0 20.4614 0C20.4439 0 20.4264 0 20.4089 0C20.3914 0 20.3739 0 20.3564 0C20.3388 0 20.3213 0 20.3038 0C20.2862 0 20.2687 0 20.2512 0C20.2336 0 20.2161 0 20.1985 0C20.1809 0 20.1634 0 20.1458 0C20.1282 0 20.1106 0 20.093 0C20.0754 0 20.0578 0 20.0402 0C20.0226 0 20.005 0 19.9874 0C19.9698 0 19.9521 0 19.9345 0C19.9169 0 19.8992 0 19.8816 0C19.8639 0 19.8463 0 19.8286 0C19.8109 0 19.7933 0 19.7756 0C19.7579 0 19.7402 0 19.7225 0C19.7048 0 19.6872 0 19.6694 0C19.6517 0 19.634 0 19.6163 0C19.5986 0 19.5809 0 19.5632 0C19.5454 0 19.5277 0 19.51 0C19.4922 0 19.4745 0 19.4567 0C19.439 0 19.4212 0 19.4035 0C19.3857 0 19.3679 0 19.3502 0C19.3324 0 19.3146 0 19.2968 0C19.279 0 19.2612 0 19.2435 0C19.2257 0 19.2079 0 19.1901 0C19.1722 0 19.1544 0 19.1366 0C19.1188 0 19.101 0 19.0832 0C19.0653 0 19.0475 0 19.0297 0C19.0118 0 18.994 0 18.9762 0C18.9583 0 18.9405 0 18.9226 0C18.9047 0 18.8869 0 18.869 0C18.8512 0 18.8333 0 18.8154 0C18.7976 0 18.7797 0 18.7618 0C18.7439 0 18.726 0 18.7081 0C18.6903 0 18.6724 0 18.6545 0C18.6366 0 18.6187 0 18.6008 0C18.5829 0 18.565 0 18.5471 0C18.5291 0 18.5112 0 18.4933 0C18.4754 0 18.4575 0 18.4395 0C18.4216 0 18.4037 0 18.3858 0C18.3678 0 18.3499 0 18.332 0C18.314 0 18.2961 0 18.2781 0C18.2602 0 18.2422 0 18.2243 0C18.2063 0 18.1884 0 18.1704 0C18.1525 0 18.1345 0 18.1166 0C18.0986 0 18.0806 0 18.0627 0C18.0447 0 18.0267 0 18.0088 0C17.9908 0 17.9728 0 17.9548 0C17.9369 0 17.9189 0 17.9009 0C17.8829 0 17.8649 0 17.847 0C17.829 0 17.811 0 17.793 0C17.775 0 17.757 0 17.739 0C17.721 0 17.703 0 17.6851 0C17.6671 0 17.6491 0 17.6311 0C17.6131 0 17.5951 0 17.5771 0C17.5591 0 17.5411 0 17.5231 0C17.5051 0 17.487 0 17.469 0C17.451 0 17.433 0 17.415 0C17.397 0 17.379 0 17.361 0C17.343 0 17.325 0 17.307 0C17.289 0 17.2709 0 17.2529 0C17.2349 0 17.2169 0 17.1989 0C17.1809 0 17.1629 0 17.1448 0C17.1268 0 17.1088 0 17.0908 0C17.0728 0 17.0548 0 17.0368 0C17.0187 0 17.0007 0 16.9827 0C16.9647 0 16.9467 0 16.9287 0C16.9106 0 16.8926 0 16.8746 0C16.8566 0 16.8386 0 16.8206 0C16.8026 0 16.7845 0 16.7665 0C16.7485 0 16.7305 0 16.7125 0C16.6945 0 16.6765 0 16.6585 0C16.6405 0 16.6224 0 16.6044 0C16.5864 0 16.5684 0 16.5504 0C16.5324 0 16.5144 0 16.4964 0C16.4784 0 16.4604 0 16.4424 0C16.4244 0 16.4064 0 16.3884 0C16.3704 0 16.3524 0 16.3344 0C16.3164 0 16.2984 0 16.2804 0C16.2624 0 16.2444 0 16.2264 0C16.2084 0 16.1905 0 16.1725 0C16.1545 0 16.1365 0 16.1185 0C16.1005 0 16.0826 0 16.0646 0C16.0466 0 16.0286 0 16.0107 0C15.9927 0 15.9747 0 15.9567 0C15.9388 0 15.9208 0 15.9029 0C15.8849 0 15.8669 0 15.849 0C15.831 0 15.8131 0 15.7951 0C15.7772 0 15.7592 0 15.7413 0C15.7233 0 15.7054 0 15.6874 0C15.6695 0 15.6515 0 15.6336 0C15.6157 0 15.5978 0 15.5798 0C15.5619 0 15.544 0 15.5261 0C15.5081 0 15.4902 0 15.4723 0C15.4544 0 15.4365 0 15.4186 0C15.4007 0 15.3828 0 15.3649 0C15.347 0 15.3291 0 15.3112 0C15.2933 0 15.2754 0 15.2575 0C15.2396 0 15.2218 0 15.2039 0C15.186 0 15.1681 0 15.1503 0C15.1324 0 15.1145 0 15.0967 0C15.0788 0 15.061 0 15.0431 0C15.0253 0 15.0074 0 14.9896 0C14.9718 0 14.9539 0 14.9361 0C14.9183 0 14.9004 0 14.8826 0C14.8648 0 14.847 0 14.8292 0C14.8114 0 14.7936 0 14.7758 0C14.758 0 14.7402 0 14.7224 0C14.7046 0 14.6868 0 14.669 0C14.6513 0 14.6335 0 14.6157 0C14.598 0 14.5802 0 14.5624 0C14.5447 0 14.5269 0 14.5092 0C14.4915 0 14.4737 0 14.456 0C14.4383 0 14.4205 0 14.4028 0C14.3851 0 14.3674 0 14.3497 0C14.332 0 14.3143 0 14.2966 0C14.2789 0 14.2612 0 14.2435 0C14.2258 0 14.2082 0 14.1905 0C14.1728 0 14.1552 0 14.1375 0C14.1199 0 14.1022 0 14.0846 0C14.0669 0 14.0493 0 14.0317 0C14.014 0 13.9964 0 13.9788 0C13.9612 0 13.9436 0 13.926 0C13.9084 0 13.8908 0 13.8732 0C13.8556 0 13.8381 0 13.8205 0C13.8029 0 13.7854 0 13.7678 0C13.7503 0 13.7327 0 13.7152 0C13.6976 0 13.6801 0 13.6626 0C13.6451 0 13.6275 0 13.61 0C13.5925 0 13.575 0 13.5575 0C13.54 0 13.5226 0 13.5051 0C13.4876 0 13.4702 0 13.4527 0C13.4352 0 13.4178 0 13.4004 0C13.3829 0 13.3655 0 13.3481 0C13.3306 0 13.3132 0 13.2958 0C13.2784 0 13.261 0 13.2436 0C13.2262 0 13.2089 0 13.1915 0C13.1741 0 13.1568 0 13.1394 0C13.1221 0 13.1047 0 13.0874 0C13.0701 0 13.0527 0 13.0354 0C13.0181 0 13.0008 0 12.9835 0C12.9662 0 12.9489 0 12.9316 0C12.9144 0 12.8971 0 12.8798 0C12.8626 0 12.8453 0 12.8281 0C12.8109 0 12.7936 0 12.7764 0C12.7592 0 12.742 0 12.7248 0C12.7076 0 12.6904 0 12.6732 0C12.6561 0 12.6389 0 12.6218 0C12.6046 0 12.5875 0 12.5703 0C12.5532 0 12.5361 0 12.5189 0C12.5018 0 12.4847 0 12.4676 0C12.4506 0 12.4335 0 12.4164 0C12.3993 0 12.3823 0 12.3652 0C12.3482 0 12.3311 0 12.3141 0C12.2971 0 12.2801 0 12.2631 0C12.2461 0 12.2291 0 12.2121 0C12.1951 0 12.1782 0 12.1612 0C12.1442 0 12.1273 0 12.1104 0C12.0934 0 12.0765 0 12.0596 0C12.0427 0 12.0258 0 12.0089 0C11.992 0 11.9751 0 11.9583 0C11.9414 0 11.9246 0 11.9077 0C11.8909 0 11.8741 0 11.8573 0C11.8405 0 11.8236 0 11.8069 0C11.7901 0 11.7733 0 11.7565 0C11.7398 0 11.723 0 11.7063 0C11.6895 0 11.6728 0 11.6561 0C11.6394 0 11.6227 0 11.606 0C11.5893 0 11.5727 0 11.556 0C11.5393 0 11.5227 0 11.5061 0C11.4894 0 11.4728 0 11.4562 0C11.4396 0 11.423 0 11.4064 0C11.3898 0 11.3733 0 11.3567 0C11.3402 0 11.3236 0 11.3071 0C11.2906 0 11.2741 0 11.2576 0C11.2411 0 11.2246 0 11.2081 0C11.1916 0 11.1752 0 11.1587 0C11.1423 0 11.1259 0 11.1095 0C11.093 0 11.0766 0 11.0603 0C11.0439 0 11.0275 0 11.0111 0C10.9948 0 10.9784 0 10.9621 0C10.9458 0 10.9295 0 10.9132 0C10.8969 0 10.8806 0 10.8643 0C10.8481 0 10.8318 0 10.8156 0C10.7993 0 10.7831 0 10.7669 0C10.7507 0 10.7345 0 10.7183 0C10.7022 0 10.686 0 10.6698 0C10.6537 0 10.6376 0 10.6215 0C10.6053 0 10.5892 0 10.5732 0C10.5571 0 10.541 0 10.5249 0C10.5089 0 10.4929 0 10.4768 0C10.4608 0 10.4448 0 10.4288 0C10.4128 0 10.3969 0 10.3809 0C10.3649 0 10.349 0 10.3331 0C10.3172 0 10.3012 0 10.2854 0C10.2695 0 10.2536 0 10.2377 0C10.2219 0 10.206 0 10.1902 0C10.1744 0 10.1586 0 10.1428 0C10.127 0 10.1112 0 10.0954 0C10.0797 0 10.0639 0 10.0482 0C10.0325 0 10.0168 0 10.0011 0V20.0022ZM20.7655 11.9639L34.5481 80.8253L54.1613 76.8997L40.3787 8.03831L20.7655 11.9639ZM34.5452 80.8109C35.4727 85.4808 38.0133 89.6757 41.722 92.6613L54.2647 77.0803C54.2127 77.0384 54.1771 76.9796 54.1641 76.9141L34.5452 80.8109ZM41.722 92.6613C45.4308 95.6468 50.0715 97.2328 54.8318 97.1416L54.4485 77.1431C54.3818 77.1443 54.3167 77.1221 54.2647 77.0803L41.722 92.6613ZM54.6401 97.1434H104.628V77.1412H54.6401V97.1434ZM104.436 97.1416C109.196 97.2328 113.837 95.6468 117.546 92.6613L105.003 77.0803C104.951 77.1221 104.886 77.1443 104.819 77.1431L104.436 97.1416ZM117.546 92.6613C121.255 89.6757 123.795 85.4808 124.723 80.8109L105.104 76.9141C105.091 76.9796 105.055 77.0384 105.003 77.0803L117.546 92.6613ZM124.737 80.736L132.966 37.5883L113.317 33.8414L105.089 76.989L124.737 80.736ZM123.142 35.7148C123.142 25.7137 123.141 25.7137 123.141 25.7137C123.141 25.7137 123.14 25.7137 123.139 25.7137C123.138 25.7137 123.137 25.7137 123.136 25.7137C123.135 25.7137 123.133 25.7137 123.132 25.7137C123.13 25.7137 123.128 25.7137 123.126 25.7137C123.124 25.7137 123.122 25.7137 123.12 25.7137C123.117 25.7137 123.115 25.7137 123.112 25.7137C123.109 25.7137 123.106 25.7137 123.103 25.7137C123.1 25.7137 123.096 25.7137 123.093 25.7137C123.089 25.7137 123.085 25.7137 123.081 25.7137C123.077 25.7137 123.073 25.7137 123.068 25.7137C123.064 25.7137 123.059 25.7137 123.055 25.7137C123.05 25.7137 123.045 25.7137 123.04 25.7137C123.034 25.7137 123.029 25.7137 123.024 25.7137C123.018 25.7137 123.012 25.7137 123.006 25.7137C123 25.7137 122.994 25.7137 122.988 25.7137C122.981 25.7137 122.975 25.7137 122.968 25.7137C122.961 25.7137 122.954 25.7137 122.947 25.7137C122.94 25.7137 122.933 25.7137 122.925 25.7137C122.918 25.7137 122.91 25.7137 122.902 25.7137C122.894 25.7137 122.886 25.7137 122.878 25.7137C122.869 25.7137 122.861 25.7137 122.852 25.7137C122.843 25.7137 122.835 25.7137 122.826 25.7137C122.816 25.7137 122.807 25.7137 122.798 25.7137C122.788 25.7137 122.779 25.7137 122.769 25.7137C122.759 25.7137 122.749 25.7137 122.739 25.7137C122.729 25.7137 122.718 25.7137 122.708 25.7137C122.697 25.7137 122.686 25.7137 122.675 25.7137C122.664 25.7137 122.653 25.7137 122.642 25.7137C122.631 25.7137 122.619 25.7137 122.607 25.7137C122.596 25.7137 122.584 25.7137 122.572 25.7137C122.56 25.7137 122.547 25.7137 122.535 25.7137C122.522 25.7137 122.51 25.7137 122.497 25.7137C122.484 25.7137 122.471 25.7137 122.458 25.7137C122.445 25.7137 122.431 25.7137 122.418 25.7137C122.404 25.7137 122.39 25.7137 122.376 25.7137C122.362 25.7137 122.348 25.7137 122.334 25.7137C122.32 25.7137 122.305 25.7137 122.291 25.7137C122.276 25.7137 122.261 25.7137 122.246 25.7137C122.231 25.7137 122.216 25.7137 122.2 25.7137C122.185 25.7137 122.169 25.7137 122.154 25.7137C122.138 25.7137 122.122 25.7137 122.106 25.7137C122.09 25.7137 122.073 25.7137 122.057 25.7137C122.04 25.7137 122.024 25.7137 122.007 25.7137C121.99 25.7137 121.973 25.7137 121.956 25.7137C121.939 25.7137 121.921 25.7137 121.904 25.7137C121.886 25.7137 121.868 25.7137 121.851 25.7137C121.833 25.7137 121.815 25.7137 121.796 25.7137C121.778 25.7137 121.76 25.7137 121.741 25.7137C121.722 25.7137 121.703 25.7137 121.685 25.7137C121.666 25.7137 121.646 25.7137 121.627 25.7137C121.608 25.7137 121.588 25.7137 121.569 25.7137C121.549 25.7137 121.529 25.7137 121.509 25.7137C121.489 25.7137 121.469 25.7137 121.448 25.7137C121.428 25.7137 121.407 25.7137 121.387 25.7137C121.366 25.7137 121.345 25.7137 121.324 25.7137C121.303 25.7137 121.282 25.7137 121.26 25.7137C121.239 25.7137 121.217 25.7137 121.195 25.7137C121.174 25.7137 121.152 25.7137 121.13 25.7137C121.108 25.7137 121.085 25.7137 121.063 25.7137C121.04 25.7137 121.018 25.7137 120.995 25.7137C120.972 25.7137 120.949 25.7137 120.926 25.7137C120.903 25.7137 120.88 25.7137 120.856 25.7137C120.833 25.7137 120.809 25.7137 120.785 25.7137C120.761 25.7137 120.738 25.7137 120.713 25.7137C120.689 25.7137 120.665 25.7137 120.64 25.7137C120.616 25.7137 120.591 25.7137 120.566 25.7137C120.542 25.7137 120.517 25.7137 120.492 25.7137C120.466 25.7137 120.441 25.7137 120.416 25.7137C120.39 25.7137 120.364 25.7137 120.339 25.7137C120.313 25.7137 120.287 25.7137 120.261 25.7137C120.235 25.7137 120.208 25.7137 120.182 25.7137C120.155 25.7137 120.129 25.7137 120.102 25.7137C120.075 25.7137 120.048 25.7137 120.021 25.7137C119.994 25.7137 119.967 25.7137 119.939 25.7137C119.912 25.7137 119.884 25.7137 119.856 25.7137C119.828 25.7137 119.801 25.7137 119.772 25.7137C119.744 25.7137 119.716 25.7137 119.688 25.7137C119.659 25.7137 119.631 25.7137 119.602 25.7137C119.573 25.7137 119.544 25.7137 119.515 25.7137C119.486 25.7137 119.457 25.7137 119.427 25.7137C119.398 25.7137 119.369 25.7137 119.339 25.7137C119.309 25.7137 119.279 25.7137 119.249 25.7137C119.219 25.7137 119.189 25.7137 119.159 25.7137C119.128 25.7137 119.098 25.7137 119.067 25.7137C119.037 25.7137 119.006 25.7137 118.975 25.7137C118.944 25.7137 118.913 25.7137 118.881 25.7137C118.85 25.7137 118.819 25.7137 118.787 25.7137C118.755 25.7137 118.724 25.7137 118.692 25.7137C118.66 25.7137 118.628 25.7137 118.596 25.7137C118.563 25.7137 118.531 25.7137 118.499 25.7137C118.466 25.7137 118.433 25.7137 118.4 25.7137C118.368 25.7137 118.335 25.7137 118.302 25.7137C118.268 25.7137 118.235 25.7137 118.202 25.7137C118.168 25.7137 118.135 25.7137 118.101 25.7137C118.067 25.7137 118.033 25.7137 117.999 25.7137C117.965 25.7137 117.931 25.7137 117.897 25.7137C117.862 25.7137 117.828 25.7137 117.793 25.7137C117.758 25.7137 117.724 25.7137 117.689 25.7137C117.654 25.7137 117.619 25.7137 117.583 25.7137C117.548 25.7137 117.513 25.7137 117.477 25.7137C117.441 25.7137 117.406 25.7137 117.37 25.7137C117.334 25.7137 117.298 25.7137 117.262 25.7137C117.226 25.7137 117.189 25.7137 117.153 25.7137C117.117 25.7137 117.08 25.7137 117.043 25.7137C117.007 25.7137 116.97 25.7137 116.933 25.7137C116.896 25.7137 116.858 25.7137 116.821 25.7137C116.784 25.7137 116.746 25.7137 116.709 25.7137C116.671 25.7137 116.633 25.7137 116.595 25.7137C116.558 25.7137 116.519 25.7137 116.481 25.7137C116.443 25.7137 116.405 25.7137 116.366 25.7137C116.328 25.7137 116.289 25.7137 116.25 25.7137C116.212 25.7137 116.173 25.7137 116.134 25.7137C116.095 25.7137 116.055 25.7137 116.016 25.7137C115.977 25.7137 115.937 25.7137 115.898 25.7137C115.858 25.7137 115.818 25.7137 115.778 25.7137C115.739 25.7137 115.699 25.7137 115.658 25.7137C115.618 25.7137 115.578 25.7137 115.537 25.7137C115.497 25.7137 115.456 25.7137 115.416 25.7137C115.375 25.7137 115.334 25.7137 115.293 25.7137C115.252 25.7137 115.211 25.7137 115.17 25.7137C115.128 25.7137 115.087 25.7137 115.045 25.7137C115.004 25.7137 114.962 25.7137 114.92 25.7137C114.878 25.7137 114.836 25.7137 114.794 25.7137C114.752 25.7137 114.71 25.7137 114.667 25.7137C114.625 25.7137 114.583 25.7137 114.54 25.7137C114.497 25.7137 114.454 25.7137 114.412 25.7137C114.369 25.7137 114.326 25.7137 114.282 25.7137C114.239 25.7137 114.196 25.7137 114.152 25.7137C114.109 25.7137 114.065 25.7137 114.022 25.7137C113.978 25.7137 113.934 25.7137 113.89 25.7137C113.846 25.7137 113.802 25.7137 113.758 25.7137C113.713 25.7137 113.669 25.7137 113.624 25.7137C113.58 25.7137 113.535 25.7137 113.491 25.7137C113.446 25.7137 113.401 25.7137 113.356 25.7137C113.311 25.7137 113.266 25.7137 113.22 25.7137C113.175 25.7137 113.129 25.7137 113.084 25.7137C113.038 25.7137 112.993 25.7137 112.947 25.7137C112.901 25.7137 112.855 25.7137 112.809 25.7137C112.763 25.7137 112.717 25.7137 112.67 25.7137C112.624 25.7137 112.578 25.7137 112.531 25.7137C112.484 25.7137 112.438 25.7137 112.391 25.7137C112.344 25.7137 112.297 25.7137 112.25 25.7137C112.203 25.7137 112.156 25.7137 112.108 25.7137C112.061 25.7137 112.013 25.7137 111.966 25.7137C111.918 25.7137 111.87 25.7137 111.823 25.7137C111.775 25.7137 111.727 25.7137 111.679 25.7137C111.631 25.7137 111.582 25.7137 111.534 25.7137C111.486 25.7137 111.437 25.7137 111.389 25.7137C111.34 25.7137 111.291 25.7137 111.242 25.7137C111.194 25.7137 111.145 25.7137 111.096 25.7137C111.046 25.7137 110.997 25.7137 110.948 25.7137C110.899 25.7137 110.849 25.7137 110.8 25.7137C110.75 25.7137 110.7 25.7137 110.651 25.7137C110.601 25.7137 110.551 25.7137 110.501 25.7137C110.451 25.7137 110.401 25.7137 110.35 25.7137C110.3 25.7137 110.25 25.7137 110.199 25.7137C110.149 25.7137 110.098 25.7137 110.047 25.7137C109.996 25.7137 109.945 25.7137 109.894 25.7137C109.843 25.7137 109.792 25.7137 109.741 25.7137C109.69 25.7137 109.639 25.7137 109.587 25.7137C109.536 25.7137 109.484 25.7137 109.432 25.7137C109.381 25.7137 109.329 25.7137 109.277 25.7137C109.225 25.7137 109.173 25.7137 109.121 25.7137C109.069 25.7137 109.016 25.7137 108.964 25.7137C108.912 25.7137 108.859 25.7137 108.806 25.7137C108.754 25.7137 108.701 25.7137 108.648 25.7137C108.595 25.7137 108.543 25.7137 108.489 25.7137C108.436 25.7137 108.383 25.7137 108.33 25.7137C108.277 25.7137 108.223 25.7137 108.17 25.7137C108.116 25.7137 108.063 25.7137 108.009 25.7137C107.955 25.7137 107.901 25.7137 107.847 25.7137C107.793 25.7137 107.739 25.7137 107.685 25.7137C107.631 25.7137 107.577 25.7137 107.522 25.7137C107.468 25.7137 107.413 25.7137 107.359 25.7137C107.304 25.7137 107.249 25.7137 107.195 25.7137C107.14 25.7137 107.085 25.7137 107.03 25.7137C106.975 25.7137 106.919 25.7137 106.864 25.7137C106.809 25.7137 106.754 25.7137 106.698 25.7137C106.643 25.7137 106.587 25.7137 106.531 25.7137C106.476 25.7137 106.42 25.7137 106.364 25.7137C106.308 25.7137 106.252 25.7137 106.196 25.7137C106.14 25.7137 106.084 25.7137 106.027 25.7137C105.971 25.7137 105.915 25.7137 105.858 25.7137C105.801 25.7137 105.745 25.7137 105.688 25.7137C105.631 25.7137 105.575 25.7137 105.518 25.7137C105.461 25.7137 105.404 25.7137 105.346 25.7137C105.289 25.7137 105.232 25.7137 105.175 25.7137C105.117 25.7137 105.06 25.7137 105.002 25.7137C104.945 25.7137 104.887 25.7137 104.829 25.7137C104.772 25.7137 104.714 25.7137 104.656 25.7137C104.598 25.7137 104.54 25.7137 104.482 25.7137C104.423 25.7137 104.365 25.7137 104.307 25.7137C104.248 25.7137 104.19 25.7137 104.131 25.7137C104.073 25.7137 104.014 25.7137 103.955 25.7137C103.897 25.7137 103.838 25.7137 103.779 25.7137C103.72 25.7137 103.661 25.7137 103.602 25.7137C103.543 25.7137 103.483 25.7137 103.424 25.7137C103.365 25.7137 103.305 25.7137 103.246 25.7137C103.186 25.7137 103.127 25.7137 103.067 25.7137C103.007 25.7137 102.947 25.7137 102.887 25.7137C102.827 25.7137 102.767 25.7137 102.707 25.7137C102.647 25.7137 102.587 25.7137 102.527 25.7137C102.466 25.7137 102.406 25.7137 102.346 25.7137C102.285 25.7137 102.225 25.7137 102.164 25.7137C102.103 25.7137 102.043 25.7137 101.982 25.7137C101.921 25.7137 101.86 25.7137 101.799 25.7137C101.738 25.7137 101.677 25.7137 101.615 25.7137C101.554 25.7137 101.493 25.7137 101.432 25.7137C101.37 25.7137 101.309 25.7137 101.247 25.7137C101.186 25.7137 101.124 25.7137 101.062 25.7137C101 25.7137 100.939 25.7137 100.877 25.7137C100.815 25.7137 100.753 25.7137 100.691 25.7137C100.628 25.7137 100.566 25.7137 100.504 25.7137C100.442 25.7137 100.379 25.7137 100.317 25.7137C100.254 25.7137 100.192 25.7137 100.129 25.7137C100.067 25.7137 100.004 25.7137 99.9411 25.7137C99.8782 25.7137 99.8154 25.7137 99.7524 25.7137C99.6894 25.7137 99.6263 25.7137 99.5632 25.7137C99.5 25.7137 99.4368 25.7137 99.3735 25.7137C99.3102 25.7137 99.2468 25.7137 99.1833 25.7137C99.1198 25.7137 99.0562 25.7137 98.9926 25.7137C98.9289 25.7137 98.8652 25.7137 98.8013 25.7137C98.7375 25.7137 98.6736 25.7137 98.6096 25.7137C98.5457 25.7137 98.4816 25.7137 98.4174 25.7137C98.3533 25.7137 98.2891 25.7137 98.2247 25.7137C98.1604 25.7137 98.096 25.7137 98.0315 25.7137C97.9671 25.7137 97.9025 25.7137 97.8379 25.7137C97.7732 25.7137 97.7085 25.7137 97.6437 25.7137C97.5789 25.7137 97.5141 25.7137 97.4491 25.7137C97.3841 25.7137 97.3191 25.7137 97.254 25.7137C97.1889 25.7137 97.1237 25.7137 97.0584 25.7137C96.9932 25.7137 96.9278 25.7137 96.8624 25.7137C96.797 25.7137 96.7315 25.7137 96.6659 25.7137C96.6003 25.7137 96.5346 25.7137 96.4689 25.7137C96.4032 25.7137 96.3374 25.7137 96.2715 25.7137C96.2056 25.7137 96.1396 25.7137 96.0736 25.7137C96.0076 25.7137 95.9414 25.7137 95.8753 25.7137C95.8091 25.7137 95.7428 25.7137 95.6765 25.7137C95.6101 25.7137 95.5437 25.7137 95.4772 25.7137C95.4107 25.7137 95.3442 25.7137 95.2776 25.7137C95.2109 25.7137 95.1442 25.7137 95.0774 25.7137C95.0107 25.7137 94.9438 25.7137 94.8769 25.7137C94.81 25.7137 94.743 25.7137 94.6759 25.7137C94.6088 25.7137 94.5417 25.7137 94.4745 25.7137C94.4073 25.7137 94.34 25.7137 94.2727 25.7137C94.2053 25.7137 94.1379 25.7137 94.0704 25.7137C94.0029 25.7137 93.9354 25.7137 93.8677 25.7137C93.8001 25.7137 93.7324 25.7137 93.6646 25.7137C93.5969 25.7137 93.529 25.7137 93.4611 25.7137C93.3932 25.7137 93.3252 25.7137 93.2572 25.7137C93.1891 25.7137 93.121 25.7137 93.0529 25.7137C92.9847 25.7137 92.9164 25.7137 92.8481 25.7137C92.7798 25.7137 92.7114 25.7137 92.643 25.7137C92.5745 25.7137 92.506 25.7137 92.4375 25.7137C92.3689 25.7137 92.3002 25.7137 92.2315 25.7137C92.1628 25.7137 92.0941 25.7137 92.0252 25.7137C91.9564 25.7137 91.8875 25.7137 91.8185 25.7137C91.7496 25.7137 91.6805 25.7137 91.6114 25.7137C91.5423 25.7137 91.4732 25.7137 91.404 25.7137C91.3347 25.7137 91.2655 25.7137 91.1961 25.7137C91.1268 25.7137 91.0574 25.7137 90.9879 25.7137C90.9184 25.7137 90.8489 25.7137 90.7793 25.7137C90.7097 25.7137 90.6401 25.7137 90.5704 25.7137C90.5006 25.7137 90.4309 25.7137 90.361 25.7137C90.2912 25.7137 90.2213 25.7137 90.1513 25.7137C90.0814 25.7137 90.0114 25.7137 89.9413 25.7137C89.8712 25.7137 89.8011 25.7137 89.7309 25.7137C89.6607 25.7137 89.5905 25.7137 89.5201 25.7137C89.4498 25.7137 89.3795 25.7137 89.3091 25.7137C89.2386 25.7137 89.1681 25.7137 89.0976 25.7137C89.0271 25.7137 88.9565 25.7137 88.8858 25.7137C88.8152 25.7137 88.7445 25.7137 88.6737 25.7137C88.6029 25.7137 88.5321 25.7137 88.4612 25.7137C88.3904 25.7137 88.3194 25.7137 88.2484 25.7137C88.1774 25.7137 88.1064 25.7137 88.0353 25.7137C87.9642 25.7137 87.8931 25.7137 87.8219 25.7137C87.7507 25.7137 87.6794 25.7137 87.6081 25.7137C87.5368 25.7137 87.4654 25.7137 87.394 25.7137C87.3226 25.7137 87.2511 25.7137 87.1796 25.7137C87.1081 25.7137 87.0365 25.7137 86.9649 25.7137C86.8932 25.7137 86.8216 25.7137 86.7498 25.7137C86.6781 25.7137 86.6063 25.7137 86.5345 25.7137C86.4627 25.7137 86.3908 25.7137 86.3189 25.7137C86.2469 25.7137 86.1749 25.7137 86.1029 25.7137C86.0309 25.7137 85.9588 25.7137 85.8867 25.7137C85.8146 25.7137 85.7424 25.7137 85.6702 25.7137C85.5979 25.7137 85.5257 25.7137 85.4533 25.7137C85.381 25.7137 85.3086 25.7137 85.2362 25.7137C85.1638 25.7137 85.0913 25.7137 85.0188 25.7137C84.9463 25.7137 84.8738 25.7137 84.8012 25.7137C84.7286 25.7137 84.6559 25.7137 84.5832 25.7137C84.5105 25.7137 84.4378 25.7137 84.365 25.7137C84.2922 25.7137 84.2194 25.7137 84.1465 25.7137C84.0736 25.7137 84.0007 25.7137 83.9277 25.7137C83.8548 25.7137 83.7817 25.7137 83.7087 25.7137C83.6356 25.7137 83.5625 25.7137 83.4894 25.7137C83.4163 25.7137 83.3431 25.7137 83.2699 25.7137C83.1966 25.7137 83.1234 25.7137 83.0501 25.7137C82.9768 25.7137 82.9034 25.7137 82.83 25.7137C82.7566 25.7137 82.6832 25.7137 82.6097 25.7137C82.5362 25.7137 82.4627 25.7137 82.3892 25.7137C82.3156 25.7137 82.242 25.7137 82.1684 25.7137C82.0947 25.7137 82.0211 25.7137 81.9473 25.7137C81.8736 25.7137 81.7999 25.7137 81.7261 25.7137C81.6523 25.7137 81.5785 25.7137 81.5046 25.7137C81.4307 25.7137 81.3568 25.7137 81.2829 25.7137C81.2089 25.7137 81.1349 25.7137 81.0609 25.7137C80.9869 25.7137 80.9128 25.7137 80.8387 25.7137C80.7646 25.7137 80.6905 25.7137 80.6164 25.7137C80.5422 25.7137 80.468 25.7137 80.3938 25.7137C80.3195 25.7137 80.2452 25.7137 80.1709 25.7137C80.0966 25.7137 80.0223 25.7137 79.9479 25.7137C79.8735 25.7137 79.7991 25.7137 79.7247 25.7137C79.6502 25.7137 79.5757 25.7137 79.5012 25.7137C79.4267 25.7137 79.3522 25.7137 79.2776 25.7137C79.203 25.7137 79.1284 25.7137 79.0538 25.7137C78.9791 25.7137 78.9044 25.7137 78.8297 25.7137C78.755 25.7137 78.6803 25.7137 78.6055 25.7137C78.5307 25.7137 78.4559 25.7137 78.3811 25.7137C78.3063 25.7137 78.2314 25.7137 78.1565 25.7137C78.0816 25.7137 78.0067 25.7137 77.9318 25.7137C77.8568 25.7137 77.7818 25.7137 77.7068 25.7137C77.6318 25.7137 77.5568 25.7137 77.4817 25.7137C77.4066 25.7137 77.3315 25.7137 77.2564 25.7137C77.1813 25.7137 77.1061 25.7137 77.031 25.7137C76.9558 25.7137 76.8806 25.7137 76.8053 25.7137C76.7301 25.7137 76.6548 25.7137 76.5796 25.7137C76.5043 25.7137 76.429 25.7137 76.3536 25.7137C76.2783 25.7137 76.2029 25.7137 76.1275 25.7137C76.0521 25.7137 75.9767 25.7137 75.9013 25.7137C75.8258 25.7137 75.7504 25.7137 75.6749 25.7137C75.5994 25.7137 75.5239 25.7137 75.4484 25.7137C75.3728 25.7137 75.2973 25.7137 75.2217 25.7137C75.1461 25.7137 75.0705 25.7137 74.9949 25.7137C74.9192 25.7137 74.8436 25.7137 74.7679 25.7137C74.6922 25.7137 74.6165 25.7137 74.5408 25.7137C74.4651 25.7137 74.3894 25.7137 74.3136 25.7137C74.2379 25.7137 74.1621 25.7137 74.0863 25.7137C74.0105 25.7137 73.9347 25.7137 73.8588 25.7137C73.783 25.7137 73.7071 25.7137 73.6312 25.7137C73.5554 25.7137 73.4795 25.7137 73.4035 25.7137C73.3276 25.7137 73.2517 25.7137 73.1757 25.7137C73.0998 25.7137 73.0238 25.7137 72.9478 25.7137C72.8718 25.7137 72.7958 25.7137 72.7198 25.7137C72.6438 25.7137 72.5677 25.7137 72.4917 25.7137C72.4156 25.7137 72.3396 25.7137 72.2635 25.7137C72.1874 25.7137 72.1113 25.7137 72.0351 25.7137C71.959 25.7137 71.8829 25.7137 71.8067 25.7137C71.7306 25.7137 71.6544 25.7137 71.5782 25.7137C71.5021 25.7137 71.4259 25.7137 71.3496 25.7137C71.2734 25.7137 71.1972 25.7137 71.121 25.7137C71.0447 25.7137 70.9685 25.7137 70.8922 25.7137C70.816 25.7137 70.7397 25.7137 70.6634 25.7137C70.5871 25.7137 70.5108 25.7137 70.4345 25.7137C70.3582 25.7137 70.2819 25.7137 70.2055 25.7137C70.1292 25.7137 70.0529 25.7137 69.9765 25.7137C69.9001 25.7137 69.8238 25.7137 69.7474 25.7137C69.671 25.7137 69.5946 25.7137 69.5182 25.7137C69.4418 25.7137 69.3654 25.7137 69.289 25.7137C69.2126 25.7137 69.1362 25.7137 69.0597 25.7137C68.9833 25.7137 68.9069 25.7137 68.8304 25.7137C68.754 25.7137 68.6775 25.7137 68.6011 25.7137C68.5246 25.7137 68.4481 25.7137 68.3716 25.7137C68.2952 25.7137 68.2187 25.7137 68.1422 25.7137C68.0657 25.7137 67.9892 25.7137 67.9127 25.7137C67.8362 25.7137 67.7597 25.7137 67.6832 25.7137C67.6066 25.7137 67.5301 25.7137 67.4536 25.7137C67.3771 25.7137 67.3005 25.7137 67.224 25.7137C67.1475 25.7137 67.0709 25.7137 66.9944 25.7137C66.9179 25.7137 66.8413 25.7137 66.7648 25.7137C66.6882 25.7137 66.6117 25.7137 66.5351 25.7137C66.4586 25.7137 66.382 25.7137 66.3054 25.7137C66.2289 25.7137 66.1523 25.7137 66.0758 25.7137C65.9992 25.7137 65.9226 25.7137 65.8461 25.7137C65.7695 25.7137 65.6929 25.7137 65.6164 25.7137C65.5398 25.7137 65.4632 25.7137 65.3867 25.7137C65.3101 25.7137 65.2336 25.7137 65.157 25.7137C65.0804 25.7137 65.0039 25.7137 64.9273 25.7137C64.8507 25.7137 64.7742 25.7137 64.6976 25.7137C64.6211 25.7137 64.5445 25.7137 64.4679 25.7137C64.3914 25.7137 64.3148 25.7137 64.2383 25.7137C64.1617 25.7137 64.0852 25.7137 64.0086 25.7137C63.9321 25.7137 63.8556 25.7137 63.779 25.7137C63.7025 25.7137 63.626 25.7137 63.5494 25.7137C63.4729 25.7137 63.3964 25.7137 63.3199 25.7137C63.2433 25.7137 63.1668 25.7137 63.0903 25.7137C63.0138 25.7137 62.9373 25.7137 62.8608 25.7137C62.7843 25.7137 62.7078 25.7137 62.6313 25.7137C62.5549 25.7137 62.4784 25.7137 62.4019 25.7137C62.3254 25.7137 62.249 25.7137 62.1725 25.7137C62.0961 25.7137 62.0196 25.7137 61.9432 25.7137C61.8667 25.7137 61.7903 25.7137 61.7139 25.7137C61.6375 25.7137 61.5611 25.7137 61.4847 25.7137C61.4083 25.7137 61.3319 25.7137 61.2555 25.7137C61.1791 25.7137 61.1027 25.7137 61.0264 25.7137C60.95 25.7137 60.8736 25.7137 60.7973 25.7137C60.7209 25.7137 60.6446 25.7137 60.5683 25.7137C60.492 25.7137 60.4157 25.7137 60.3394 25.7137C60.2631 25.7137 60.1868 25.7137 60.1105 25.7137C60.0342 25.7137 59.958 25.7137 59.8817 25.7137C59.8055 25.7137 59.7293 25.7137 59.653 25.7137C59.5768 25.7137 59.5006 25.7137 59.4244 25.7137C59.3482 25.7137 59.2721 25.7137 59.1959 25.7137C59.1197 25.7137 59.0436 25.7137 58.9674 25.7137C58.8913 25.7137 58.8152 25.7137 58.7391 25.7137C58.663 25.7137 58.5869 25.7137 58.5108 25.7137C58.4348 25.7137 58.3587 25.7137 58.2827 25.7137C58.2066 25.7137 58.1306 25.7137 58.0546 25.7137C57.9786 25.7137 57.9026 25.7137 57.8267 25.7137C57.7507 25.7137 57.6748 25.7137 57.5988 25.7137C57.5229 25.7137 57.447 25.7137 57.3711 25.7137C57.2952 25.7137 57.2193 25.7137 57.1435 25.7137C57.0676 25.7137 56.9918 25.7137 56.916 25.7137C56.8402 25.7137 56.7644 25.7137 56.6886 25.7137C56.6128 25.7137 56.5371 25.7137 56.4613 25.7137C56.3856 25.7137 56.3099 25.7137 56.2342 25.7137C56.1585 25.7137 56.0829 25.7137 56.0072 25.7137C55.9316 25.7137 55.8559 25.7137 55.7803 25.7137C55.7047 25.7137 55.6292 25.7137 55.5536 25.7137C55.4781 25.7137 55.4025 25.7137 55.327 25.7137C55.2515 25.7137 55.176 25.7137 55.1006 25.7137C55.0251 25.7137 54.9497 25.7137 54.8743 25.7137C54.7989 25.7137 54.7235 25.7137 54.6481 25.7137C54.5728 25.7137 54.4975 25.7137 54.4221 25.7137C54.3468 25.7137 54.2716 25.7137 54.1963 25.7137C54.1211 25.7137 54.0458 25.7137 53.9706 25.7137C53.8954 25.7137 53.8203 25.7137 53.7451 25.7137C53.67 25.7137 53.5949 25.7137 53.5198 25.7137C53.4447 25.7137 53.3696 25.7137 53.2946 25.7137C53.2196 25.7137 53.1446 25.7137 53.0696 25.7137C52.9946 25.7137 52.9197 25.7137 52.8448 25.7137C52.7698 25.7137 52.695 25.7137 52.6201 25.7137C52.5452 25.7137 52.4704 25.7137 52.3956 25.7137C52.3208 25.7137 52.2461 25.7137 52.1713 25.7137C52.0966 25.7137 52.0219 25.7137 51.9472 25.7137C51.8726 25.7137 51.7979 25.7137 51.7233 25.7137C51.6487 25.7137 51.5742 25.7137 51.4996 25.7137C51.4251 25.7137 51.3506 25.7137 51.2761 25.7137C51.2017 25.7137 51.1272 25.7137 51.0528 25.7137C50.9784 25.7137 50.9041 25.7137 50.8297 25.7137C50.7554 25.7137 50.6811 25.7137 50.6068 25.7137C50.5326 25.7137 50.4583 25.7137 50.3841 25.7137C50.3099 25.7137 50.2358 25.7137 50.1617 25.7137C50.0876 25.7137 50.0135 25.7137 49.9394 25.7137C49.8654 25.7137 49.7914 25.7137 49.7174 25.7137C49.6434 25.7137 49.5695 25.7137 49.4956 25.7137C49.4217 25.7137 49.3478 25.7137 49.274 25.7137C49.2002 25.7137 49.1264 25.7137 49.0527 25.7137C48.9789 25.7137 48.9052 25.7137 48.8316 25.7137C48.7579 25.7137 48.6843 25.7137 48.6107 25.7137C48.5371 25.7137 48.4636 25.7137 48.39 25.7137C48.3165 25.7137 48.2431 25.7137 48.1697 25.7137C48.0962 25.7137 48.0229 25.7137 47.9495 25.7137C47.8762 25.7137 47.8029 25.7137 47.7296 25.7137C47.6564 25.7137 47.5832 25.7137 47.51 25.7137C47.4368 25.7137 47.3637 25.7137 47.2906 25.7137C47.2175 25.7137 47.1445 25.7137 47.0715 25.7137C46.9985 25.7137 46.9255 25.7137 46.8526 25.7137C46.7797 25.7137 46.7069 25.7137 46.634 25.7137C46.5612 25.7137 46.4884 25.7137 46.4157 25.7137C46.343 25.7137 46.2703 25.7137 46.1977 25.7137C46.125 25.7137 46.0524 25.7137 45.9799 25.7137C45.9073 25.7137 45.8348 25.7137 45.7624 25.7137C45.6899 25.7137 45.6175 25.7137 45.5452 25.7137C45.4728 25.7137 45.4005 25.7137 45.3283 25.7137C45.256 25.7137 45.1838 25.7137 45.1116 25.7137C45.0395 25.7137 44.9673 25.7137 44.8953 25.7137C44.8232 25.7137 44.7512 25.7137 44.6792 25.7137C44.6073 25.7137 44.5353 25.7137 44.4635 25.7137C44.3916 25.7137 44.3198 25.7137 44.248 25.7137C44.1763 25.7137 44.1046 25.7137 44.0329 25.7137C43.9612 25.7137 43.8896 25.7137 43.8181 25.7137C43.7465 25.7137 43.675 25.7137 43.6035 25.7137C43.5321 25.7137 43.4607 25.7137 43.3893 25.7137C43.318 25.7137 43.2467 25.7137 43.1755 25.7137C43.1042 25.7137 43.033 25.7137 42.9619 25.7137C42.8908 25.7137 42.8197 25.7137 42.7486 25.7137C42.6776 25.7137 42.6066 25.7137 42.5357 25.7137C42.4648 25.7137 42.394 25.7137 42.3231 25.7137C42.2523 25.7137 42.1816 25.7137 42.1109 25.7137C42.0402 25.7137 41.9696 25.7137 41.899 25.7137C41.8284 25.7137 41.7579 25.7137 41.6874 25.7137C41.617 25.7137 41.5466 25.7137 41.4762 25.7137C41.4059 25.7137 41.3356 25.7137 41.2653 25.7137C41.1951 25.7137 41.1249 25.7137 41.0548 25.7137C40.9847 25.7137 40.9146 25.7137 40.8446 25.7137C40.7746 25.7137 40.7047 25.7137 40.6348 25.7137C40.5649 25.7137 40.4951 25.7137 40.4254 25.7137C40.3556 25.7137 40.2859 25.7137 40.2163 25.7137C40.1466 25.7137 40.0771 25.7137 40.0075 25.7137C39.938 25.7137 39.8686 25.7137 39.7992 25.7137C39.7298 25.7137 39.6605 25.7137 39.5912 25.7137C39.5219 25.7137 39.4527 25.7137 39.3836 25.7137C39.3145 25.7137 39.2454 25.7137 39.1764 25.7137C39.1074 25.7137 39.0384 25.7137 38.9695 25.7137C38.9007 25.7137 38.8318 25.7137 38.7631 25.7137C38.6943 25.7137 38.6256 25.7137 38.557 25.7137C38.4884 25.7137 38.4198 25.7137 38.3514 25.7137C38.2829 25.7137 38.2144 25.7137 38.1461 25.7137C38.0777 25.7137 38.0094 25.7137 37.9412 25.7137C37.873 25.7137 37.8048 25.7137 37.7367 25.7137C37.6686 25.7137 37.6006 25.7137 37.5327 25.7137C37.4647 25.7137 37.3968 25.7137 37.329 25.7137C37.2612 25.7137 37.1934 25.7137 37.1258 25.7137C37.0581 25.7137 36.9905 25.7137 36.9229 25.7137C36.8554 25.7137 36.7879 25.7137 36.7205 25.7137C36.6531 25.7137 36.5858 25.7137 36.5185 25.7137C36.4513 25.7137 36.3841 25.7137 36.317 25.7137C36.2498 25.7137 36.1828 25.7137 36.1158 25.7137C36.0488 25.7137 35.9819 25.7137 35.9151 25.7137C35.8483 25.7137 35.7815 25.7137 35.7148 25.7137V45.7159C35.7815 45.7159 35.8483 45.7159 35.9151 45.7159C35.9819 45.7159 36.0488 45.7159 36.1158 45.7159C36.1828 45.7159 36.2498 45.7159 36.317 45.7159C36.3841 45.7159 36.4513 45.7159 36.5185 45.7159C36.5858 45.7159 36.6531 45.7159 36.7205 45.7159C36.7879 45.7159 36.8554 45.7159 36.9229 45.7159C36.9905 45.7159 37.0581 45.7159 37.1258 45.7159C37.1934 45.7159 37.2612 45.7159 37.329 45.7159C37.3968 45.7159 37.4647 45.7159 37.5327 45.7159C37.6006 45.7159 37.6686 45.7159 37.7367 45.7159C37.8048 45.7159 37.873 45.7159 37.9412 45.7159C38.0094 45.7159 38.0777 45.7159 38.1461 45.7159C38.2144 45.7159 38.2829 45.7159 38.3514 45.7159C38.4198 45.7159 38.4884 45.7159 38.557 45.7159C38.6256 45.7159 38.6943 45.7159 38.7631 45.7159C38.8318 45.7159 38.9007 45.7159 38.9695 45.7159C39.0384 45.7159 39.1074 45.7159 39.1764 45.7159C39.2454 45.7159 39.3145 45.7159 39.3836 45.7159C39.4527 45.7159 39.5219 45.7159 39.5912 45.7159C39.6605 45.7159 39.7298 45.7159 39.7992 45.7159C39.8686 45.7159 39.938 45.7159 40.0075 45.7159C40.0771 45.7159 40.1466 45.7159 40.2163 45.7159C40.2859 45.7159 40.3556 45.7159 40.4254 45.7159C40.4951 45.7159 40.5649 45.7159 40.6348 45.7159C40.7047 45.7159 40.7746 45.7159 40.8446 45.7159C40.9146 45.7159 40.9847 45.7159 41.0548 45.7159C41.1249 45.7159 41.1951 45.7159 41.2653 45.7159C41.3356 45.7159 41.4059 45.7159 41.4762 45.7159C41.5466 45.7159 41.617 45.7159 41.6874 45.7159C41.7579 45.7159 41.8284 45.7159 41.899 45.7159C41.9696 45.7159 42.0402 45.7159 42.1109 45.7159C42.1816 45.7159 42.2523 45.7159 42.3231 45.7159C42.394 45.7159 42.4648 45.7159 42.5357 45.7159C42.6066 45.7159 42.6776 45.7159 42.7486 45.7159C42.8197 45.7159 42.8908 45.7159 42.9619 45.7159C43.033 45.7159 43.1042 45.7159 43.1755 45.7159C43.2467 45.7159 43.318 45.7159 43.3893 45.7159C43.4607 45.7159 43.5321 45.7159 43.6035 45.7159C43.675 45.7159 43.7465 45.7159 43.8181 45.7159C43.8896 45.7159 43.9612 45.7159 44.0329 45.7159C44.1046 45.7159 44.1763 45.7159 44.248 45.7159C44.3198 45.7159 44.3916 45.7159 44.4635 45.7159C44.5353 45.7159 44.6073 45.7159 44.6792 45.7159C44.7512 45.7159 44.8232 45.7159 44.8953 45.7159C44.9673 45.7159 45.0395 45.7159 45.1116 45.7159C45.1838 45.7159 45.256 45.7159 45.3283 45.7159C45.4005 45.7159 45.4728 45.7159 45.5452 45.7159C45.6175 45.7159 45.6899 45.7159 45.7624 45.7159C45.8348 45.7159 45.9073 45.7159 45.9799 45.7159C46.0524 45.7159 46.125 45.7159 46.1977 45.7159C46.2703 45.7159 46.343 45.7159 46.4157 45.7159C46.4884 45.7159 46.5612 45.7159 46.634 45.7159C46.7069 45.7159 46.7797 45.7159 46.8526 45.7159C46.9255 45.7159 46.9985 45.7159 47.0715 45.7159C47.1445 45.7159 47.2175 45.7159 47.2906 45.7159C47.3637 45.7159 47.4368 45.7159 47.51 45.7159C47.5832 45.7159 47.6564 45.7159 47.7296 45.7159C47.8029 45.7159 47.8762 45.7159 47.9495 45.7159C48.0229 45.7159 48.0962 45.7159 48.1697 45.7159C48.2431 45.7159 48.3165 45.7159 48.39 45.7159C48.4636 45.7159 48.5371 45.7159 48.6107 45.7159C48.6843 45.7159 48.7579 45.7159 48.8316 45.7159C48.9052 45.7159 48.9789 45.7159 49.0527 45.7159C49.1264 45.7159 49.2002 45.7159 49.274 45.7159C49.3478 45.7159 49.4217 45.7159 49.4956 45.7159C49.5695 45.7159 49.6434 45.7159 49.7174 45.7159C49.7914 45.7159 49.8654 45.7159 49.9394 45.7159C50.0135 45.7159 50.0876 45.7159 50.1617 45.7159C50.2358 45.7159 50.3099 45.7159 50.3841 45.7159C50.4583 45.7159 50.5326 45.7159 50.6068 45.7159C50.6811 45.7159 50.7554 45.7159 50.8297 45.7159C50.9041 45.7159 50.9784 45.7159 51.0528 45.7159C51.1272 45.7159 51.2017 45.7159 51.2761 45.7159C51.3506 45.7159 51.4251 45.7159 51.4996 45.7159C51.5742 45.7159 51.6487 45.7159 51.7233 45.7159C51.7979 45.7159 51.8726 45.7159 51.9472 45.7159C52.0219 45.7159 52.0966 45.7159 52.1713 45.7159C52.2461 45.7159 52.3208 45.7159 52.3956 45.7159C52.4704 45.7159 52.5452 45.7159 52.6201 45.7159C52.695 45.7159 52.7698 45.7159 52.8448 45.7159C52.9197 45.7159 52.9946 45.7159 53.0696 45.7159C53.1446 45.7159 53.2196 45.7159 53.2946 45.7159C53.3696 45.7159 53.4447 45.7159 53.5198 45.7159C53.5949 45.7159 53.67 45.7159 53.7451 45.7159C53.8203 45.7159 53.8954 45.7159 53.9706 45.7159C54.0458 45.7159 54.1211 45.7159 54.1963 45.7159C54.2716 45.7159 54.3468 45.7159 54.4221 45.7159C54.4975 45.7159 54.5728 45.7159 54.6481 45.7159C54.7235 45.7159 54.7989 45.7159 54.8743 45.7159C54.9497 45.7159 55.0251 45.7159 55.1006 45.7159C55.176 45.7159 55.2515 45.7159 55.327 45.7159C55.4025 45.7159 55.4781 45.7159 55.5536 45.7159C55.6292 45.7159 55.7047 45.7159 55.7803 45.7159C55.8559 45.7159 55.9316 45.7159 56.0072 45.7159C56.0829 45.7159 56.1585 45.7159 56.2342 45.7159C56.3099 45.7159 56.3856 45.7159 56.4613 45.7159C56.5371 45.7159 56.6128 45.7159 56.6886 45.7159C56.7644 45.7159 56.8402 45.7159 56.916 45.7159C56.9918 45.7159 57.0676 45.7159 57.1435 45.7159C57.2193 45.7159 57.2952 45.7159 57.3711 45.7159C57.447 45.7159 57.5229 45.7159 57.5988 45.7159C57.6748 45.7159 57.7507 45.7159 57.8267 45.7159C57.9026 45.7159 57.9786 45.7159 58.0546 45.7159C58.1306 45.7159 58.2066 45.7159 58.2827 45.7159C58.3587 45.7159 58.4348 45.7159 58.5108 45.7159C58.5869 45.7159 58.663 45.7159 58.7391 45.7159C58.8152 45.7159 58.8913 45.7159 58.9674 45.7159C59.0436 45.7159 59.1197 45.7159 59.1959 45.7159C59.2721 45.7159 59.3482 45.7159 59.4244 45.7159C59.5006 45.7159 59.5768 45.7159 59.653 45.7159C59.7293 45.7159 59.8055 45.7159 59.8817 45.7159C59.958 45.7159 60.0342 45.7159 60.1105 45.7159C60.1868 45.7159 60.2631 45.7159 60.3394 45.7159C60.4157 45.7159 60.492 45.7159 60.5683 45.7159C60.6446 45.7159 60.7209 45.7159 60.7973 45.7159C60.8736 45.7159 60.95 45.7159 61.0264 45.7159C61.1027 45.7159 61.1791 45.7159 61.2555 45.7159C61.3319 45.7159 61.4083 45.7159 61.4847 45.7159C61.5611 45.7159 61.6375 45.7159 61.7139 45.7159C61.7903 45.7159 61.8667 45.7159 61.9432 45.7159C62.0196 45.7159 62.0961 45.7159 62.1725 45.7159C62.249 45.7159 62.3254 45.7159 62.4019 45.7159C62.4784 45.7159 62.5549 45.7159 62.6313 45.7159C62.7078 45.7159 62.7843 45.7159 62.8608 45.7159C62.9373 45.7159 63.0138 45.7159 63.0903 45.7159C63.1668 45.7159 63.2433 45.7159 63.3199 45.7159C63.3964 45.7159 63.4729 45.7159 63.5494 45.7159C63.626 45.7159 63.7025 45.7159 63.779 45.7159C63.8556 45.7159 63.9321 45.7159 64.0086 45.7159C64.0852 45.7159 64.1617 45.7159 64.2383 45.7159C64.3148 45.7159 64.3914 45.7159 64.4679 45.7159C64.5445 45.7159 64.6211 45.7159 64.6976 45.7159C64.7742 45.7159 64.8507 45.7159 64.9273 45.7159C65.0039 45.7159 65.0804 45.7159 65.157 45.7159C65.2336 45.7159 65.3101 45.7159 65.3867 45.7159C65.4632 45.7159 65.5398 45.7159 65.6164 45.7159C65.6929 45.7159 65.7695 45.7159 65.8461 45.7159C65.9226 45.7159 65.9992 45.7159 66.0758 45.7159C66.1523 45.7159 66.2289 45.7159 66.3054 45.7159C66.382 45.7159 66.4586 45.7159 66.5351 45.7159C66.6117 45.7159 66.6882 45.7159 66.7648 45.7159C66.8413 45.7159 66.9179 45.7159 66.9944 45.7159C67.0709 45.7159 67.1475 45.7159 67.224 45.7159C67.3005 45.7159 67.3771 45.7159 67.4536 45.7159C67.5301 45.7159 67.6066 45.7159 67.6832 45.7159C67.7597 45.7159 67.8362 45.7159 67.9127 45.7159C67.9892 45.7159 68.0657 45.7159 68.1422 45.7159C68.2187 45.7159 68.2952 45.7159 68.3716 45.7159C68.4481 45.7159 68.5246 45.7159 68.6011 45.7159C68.6775 45.7159 68.754 45.7159 68.8304 45.7159C68.9069 45.7159 68.9833 45.7159 69.0597 45.7159C69.1362 45.7159 69.2126 45.7159 69.289 45.7159C69.3654 45.7159 69.4418 45.7159 69.5182 45.7159C69.5946 45.7159 69.671 45.7159 69.7474 45.7159C69.8238 45.7159 69.9001 45.7159 69.9765 45.7159C70.0529 45.7159 70.1292 45.7159 70.2055 45.7159C70.2819 45.7159 70.3582 45.7159 70.4345 45.7159C70.5108 45.7159 70.5871 45.7159 70.6634 45.7159C70.7397 45.7159 70.816 45.7159 70.8922 45.7159C70.9685 45.7159 71.0447 45.7159 71.121 45.7159C71.1972 45.7159 71.2734 45.7159 71.3496 45.7159C71.4259 45.7159 71.5021 45.7159 71.5782 45.7159C71.6544 45.7159 71.7306 45.7159 71.8067 45.7159C71.8829 45.7159 71.959 45.7159 72.0351 45.7159C72.1113 45.7159 72.1874 45.7159 72.2635 45.7159C72.3396 45.7159 72.4156 45.7159 72.4917 45.7159C72.5677 45.7159 72.6438 45.7159 72.7198 45.7159C72.7958 45.7159 72.8718 45.7159 72.9478 45.7159C73.0238 45.7159 73.0998 45.7159 73.1757 45.7159C73.2517 45.7159 73.3276 45.7159 73.4035 45.7159C73.4795 45.7159 73.5554 45.7159 73.6312 45.7159C73.7071 45.7159 73.783 45.7159 73.8588 45.7159C73.9347 45.7159 74.0105 45.7159 74.0863 45.7159C74.1621 45.7159 74.2379 45.7159 74.3136 45.7159C74.3894 45.7159 74.4651 45.7159 74.5408 45.7159C74.6165 45.7159 74.6922 45.7159 74.7679 45.7159C74.8436 45.7159 74.9192 45.7159 74.9949 45.7159C75.0705 45.7159 75.1461 45.7159 75.2217 45.7159C75.2973 45.7159 75.3728 45.7159 75.4484 45.7159C75.5239 45.7159 75.5994 45.7159 75.6749 45.7159C75.7504 45.7159 75.8258 45.7159 75.9013 45.7159C75.9767 45.7159 76.0521 45.7159 76.1275 45.7159C76.2029 45.7159 76.2783 45.7159 76.3536 45.7159C76.429 45.7159 76.5043 45.7159 76.5796 45.7159C76.6548 45.7159 76.7301 45.7159 76.8053 45.7159C76.8806 45.7159 76.9558 45.7159 77.031 45.7159C77.1061 45.7159 77.1813 45.7159 77.2564 45.7159C77.3315 45.7159 77.4066 45.7159 77.4817 45.7159C77.5568 45.7159 77.6318 45.7159 77.7068 45.7159C77.7818 45.7159 77.8568 45.7159 77.9318 45.7159C78.0067 45.7159 78.0816 45.7159 78.1565 45.7159C78.2314 45.7159 78.3063 45.7159 78.3811 45.7159C78.4559 45.7159 78.5307 45.7159 78.6055 45.7159C78.6803 45.7159 78.755 45.7159 78.8297 45.7159C78.9044 45.7159 78.9791 45.7159 79.0538 45.7159C79.1284 45.7159 79.203 45.7159 79.2776 45.7159C79.3522 45.7159 79.4267 45.7159 79.5012 45.7159C79.5757 45.7159 79.6502 45.7159 79.7247 45.7159C79.7991 45.7159 79.8735 45.7159 79.9479 45.7159C80.0223 45.7159 80.0966 45.7159 80.1709 45.7159C80.2452 45.7159 80.3195 45.7159 80.3938 45.7159C80.468 45.7159 80.5422 45.7159 80.6164 45.7159C80.6905 45.7159 80.7646 45.7159 80.8387 45.7159C80.9128 45.7159 80.9869 45.7159 81.0609 45.7159C81.1349 45.7159 81.2089 45.7159 81.2829 45.7159C81.3568 45.7159 81.4307 45.7159 81.5046 45.7159C81.5785 45.7159 81.6523 45.7159 81.7261 45.7159C81.7999 45.7159 81.8736 45.7159 81.9473 45.7159C82.0211 45.7159 82.0947 45.7159 82.1684 45.7159C82.242 45.7159 82.3156 45.7159 82.3892 45.7159C82.4627 45.7159 82.5362 45.7159 82.6097 45.7159C82.6832 45.7159 82.7566 45.7159 82.83 45.7159C82.9034 45.7159 82.9768 45.7159 83.0501 45.7159C83.1234 45.7159 83.1966 45.7159 83.2699 45.7159C83.3431 45.7159 83.4163 45.7159 83.4894 45.7159C83.5625 45.7159 83.6356 45.7159 83.7087 45.7159C83.7817 45.7159 83.8548 45.7159 83.9277 45.7159C84.0007 45.7159 84.0736 45.7159 84.1465 45.7159C84.2194 45.7159 84.2922 45.7159 84.365 45.7159C84.4378 45.7159 84.5105 45.7159 84.5832 45.7159C84.6559 45.7159 84.7286 45.7159 84.8012 45.7159C84.8738 45.7159 84.9463 45.7159 85.0188 45.7159C85.0913 45.7159 85.1638 45.7159 85.2362 45.7159C85.3086 45.7159 85.381 45.7159 85.4533 45.7159C85.5257 45.7159 85.5979 45.7159 85.6702 45.7159C85.7424 45.7159 85.8146 45.7159 85.8867 45.7159C85.9588 45.7159 86.0309 45.7159 86.1029 45.7159C86.1749 45.7159 86.2469 45.7159 86.3189 45.7159C86.3908 45.7159 86.4627 45.7159 86.5345 45.7159C86.6063 45.7159 86.6781 45.7159 86.7498 45.7159C86.8216 45.7159 86.8932 45.7159 86.9649 45.7159C87.0365 45.7159 87.1081 45.7159 87.1796 45.7159C87.2511 45.7159 87.3226 45.7159 87.394 45.7159C87.4654 45.7159 87.5368 45.7159 87.6081 45.7159C87.6794 45.7159 87.7507 45.7159 87.8219 45.7159C87.8931 45.7159 87.9642 45.7159 88.0353 45.7159C88.1064 45.7159 88.1774 45.7159 88.2484 45.7159C88.3194 45.7159 88.3904 45.7159 88.4612 45.7159C88.5321 45.7159 88.6029 45.7159 88.6737 45.7159C88.7445 45.7159 88.8152 45.7159 88.8858 45.7159C88.9565 45.7159 89.0271 45.7159 89.0976 45.7159C89.1681 45.7159 89.2386 45.7159 89.3091 45.7159C89.3795 45.7159 89.4498 45.7159 89.5201 45.7159C89.5905 45.7159 89.6607 45.7159 89.7309 45.7159C89.8011 45.7159 89.8712 45.7159 89.9413 45.7159C90.0114 45.7159 90.0814 45.7159 90.1513 45.7159C90.2213 45.7159 90.2912 45.7159 90.361 45.7159C90.4309 45.7159 90.5006 45.7159 90.5704 45.7159C90.6401 45.7159 90.7097 45.7159 90.7793 45.7159C90.8489 45.7159 90.9184 45.7159 90.9879 45.7159C91.0574 45.7159 91.1268 45.7159 91.1961 45.7159C91.2655 45.7159 91.3347 45.7159 91.404 45.7159C91.4732 45.7159 91.5423 45.7159 91.6114 45.7159C91.6805 45.7159 91.7496 45.7159 91.8185 45.7159C91.8875 45.7159 91.9564 45.7159 92.0252 45.7159C92.0941 45.7159 92.1628 45.7159 92.2315 45.7159C92.3002 45.7159 92.3689 45.7159 92.4375 45.7159C92.506 45.7159 92.5745 45.7159 92.643 45.7159C92.7114 45.7159 92.7798 45.7159 92.8481 45.7159C92.9164 45.7159 92.9847 45.7159 93.0529 45.7159C93.121 45.7159 93.1891 45.7159 93.2572 45.7159C93.3252 45.7159 93.3932 45.7159 93.4611 45.7159C93.529 45.7159 93.5969 45.7159 93.6646 45.7159C93.7324 45.7159 93.8001 45.7159 93.8677 45.7159C93.9354 45.7159 94.0029 45.7159 94.0704 45.7159C94.1379 45.7159 94.2053 45.7159 94.2727 45.7159C94.34 45.7159 94.4073 45.7159 94.4745 45.7159C94.5417 45.7159 94.6088 45.7159 94.6759 45.7159C94.743 45.7159 94.81 45.7159 94.8769 45.7159C94.9438 45.7159 95.0107 45.7159 95.0774 45.7159C95.1442 45.7159 95.2109 45.7159 95.2776 45.7159C95.3442 45.7159 95.4107 45.7159 95.4772 45.7159C95.5437 45.7159 95.6101 45.7159 95.6765 45.7159C95.7428 45.7159 95.8091 45.7159 95.8753 45.7159C95.9414 45.7159 96.0076 45.7159 96.0736 45.7159C96.1396 45.7159 96.2056 45.7159 96.2715 45.7159C96.3374 45.7159 96.4032 45.7159 96.4689 45.7159C96.5346 45.7159 96.6003 45.7159 96.6659 45.7159C96.7315 45.7159 96.797 45.7159 96.8624 45.7159C96.9278 45.7159 96.9932 45.7159 97.0584 45.7159C97.1237 45.7159 97.1889 45.7159 97.254 45.7159C97.3191 45.7159 97.3841 45.7159 97.4491 45.7159C97.5141 45.7159 97.5789 45.7159 97.6437 45.7159C97.7085 45.7159 97.7732 45.7159 97.8379 45.7159C97.9025 45.7159 97.9671 45.7159 98.0315 45.7159C98.096 45.7159 98.1604 45.7159 98.2247 45.7159C98.2891 45.7159 98.3533 45.7159 98.4174 45.7159C98.4816 45.7159 98.5457 45.7159 98.6096 45.7159C98.6736 45.7159 98.7375 45.7159 98.8013 45.7159C98.8652 45.7159 98.9289 45.7159 98.9926 45.7159C99.0562 45.7159 99.1198 45.7159 99.1833 45.7159C99.2468 45.7159 99.3102 45.7159 99.3735 45.7159C99.4368 45.7159 99.5 45.7159 99.5632 45.7159C99.6263 45.7159 99.6894 45.7159 99.7524 45.7159C99.8154 45.7159 99.8782 45.7159 99.9411 45.7159C100.004 45.7159 100.067 45.7159 100.129 45.7159C100.192 45.7159 100.254 45.7159 100.317 45.7159C100.379 45.7159 100.442 45.7159 100.504 45.7159C100.566 45.7159 100.628 45.7159 100.691 45.7159C100.753 45.7159 100.815 45.7159 100.877 45.7159C100.939 45.7159 101 45.7159 101.062 45.7159C101.124 45.7159 101.186 45.7159 101.247 45.7159C101.309 45.7159 101.37 45.7159 101.432 45.7159C101.493 45.7159 101.554 45.7159 101.615 45.7159C101.677 45.7159 101.738 45.7159 101.799 45.7159C101.86 45.7159 101.921 45.7159 101.982 45.7159C102.043 45.7159 102.103 45.7159 102.164 45.7159C102.225 45.7159 102.285 45.7159 102.346 45.7159C102.406 45.7159 102.466 45.7159 102.527 45.7159C102.587 45.7159 102.647 45.7159 102.707 45.7159C102.767 45.7159 102.827 45.7159 102.887 45.7159C102.947 45.7159 103.007 45.7159 103.067 45.7159C103.127 45.7159 103.186 45.7159 103.246 45.7159C103.305 45.7159 103.365 45.7159 103.424 45.7159C103.483 45.7159 103.543 45.7159 103.602 45.7159C103.661 45.7159 103.72 45.7159 103.779 45.7159C103.838 45.7159 103.897 45.7159 103.955 45.7159C104.014 45.7159 104.073 45.7159 104.131 45.7159C104.19 45.7159 104.248 45.7159 104.307 45.7159C104.365 45.7159 104.423 45.7159 104.482 45.7159C104.54 45.7159 104.598 45.7159 104.656 45.7159C104.714 45.7159 104.772 45.7159 104.829 45.7159C104.887 45.7159 104.945 45.7159 105.002 45.7159C105.06 45.7159 105.117 45.7159 105.175 45.7159C105.232 45.7159 105.289 45.7159 105.346 45.7159C105.404 45.7159 105.461 45.7159 105.518 45.7159C105.575 45.7159 105.631 45.7159 105.688 45.7159C105.745 45.7159 105.801 45.7159 105.858 45.7159C105.915 45.7159 105.971 45.7159 106.027 45.7159C106.084 45.7159 106.14 45.7159 106.196 45.7159C106.252 45.7159 106.308 45.7159 106.364 45.7159C106.42 45.7159 106.476 45.7159 106.531 45.7159C106.587 45.7159 106.643 45.7159 106.698 45.7159C106.754 45.7159 106.809 45.7159 106.864 45.7159C106.919 45.7159 106.975 45.7159 107.03 45.7159C107.085 45.7159 107.14 45.7159 107.195 45.7159C107.249 45.7159 107.304 45.7159 107.359 45.7159C107.413 45.7159 107.468 45.7159 107.522 45.7159C107.577 45.7159 107.631 45.7159 107.685 45.7159C107.739 45.7159 107.793 45.7159 107.847 45.7159C107.901 45.7159 107.955 45.7159 108.009 45.7159C108.063 45.7159 108.116 45.7159 108.17 45.7159C108.223 45.7159 108.277 45.7159 108.33 45.7159C108.383 45.7159 108.436 45.7159 108.489 45.7159C108.543 45.7159 108.595 45.7159 108.648 45.7159C108.701 45.7159 108.754 45.7159 108.806 45.7159C108.859 45.7159 108.912 45.7159 108.964 45.7159C109.016 45.7159 109.069 45.7159 109.121 45.7159C109.173 45.7159 109.225 45.7159 109.277 45.7159C109.329 45.7159 109.381 45.7159 109.432 45.7159C109.484 45.7159 109.536 45.7159 109.587 45.7159C109.639 45.7159 109.69 45.7159 109.741 45.7159C109.792 45.7159 109.843 45.7159 109.894 45.7159C109.945 45.7159 109.996 45.7159 110.047 45.7159C110.098 45.7159 110.149 45.7159 110.199 45.7159C110.25 45.7159 110.3 45.7159 110.35 45.7159C110.401 45.7159 110.451 45.7159 110.501 45.7159C110.551 45.7159 110.601 45.7159 110.651 45.7159C110.7 45.7159 110.75 45.7159 110.8 45.7159C110.849 45.7159 110.899 45.7159 110.948 45.7159C110.997 45.7159 111.046 45.7159 111.096 45.7159C111.145 45.7159 111.194 45.7159 111.242 45.7159C111.291 45.7159 111.34 45.7159 111.389 45.7159C111.437 45.7159 111.486 45.7159 111.534 45.7159C111.582 45.7159 111.631 45.7159 111.679 45.7159C111.727 45.7159 111.775 45.7159 111.823 45.7159C111.87 45.7159 111.918 45.7159 111.966 45.7159C112.013 45.7159 112.061 45.7159 112.108 45.7159C112.156 45.7159 112.203 45.7159 112.25 45.7159C112.297 45.7159 112.344 45.7159 112.391 45.7159C112.438 45.7159 112.484 45.7159 112.531 45.7159C112.578 45.7159 112.624 45.7159 112.67 45.7159C112.717 45.7159 112.763 45.7159 112.809 45.7159C112.855 45.7159 112.901 45.7159 112.947 45.7159C112.993 45.7159 113.038 45.7159 113.084 45.7159C113.129 45.7159 113.175 45.7159 113.22 45.7159C113.266 45.7159 113.311 45.7159 113.356 45.7159C113.401 45.7159 113.446 45.7159 113.491 45.7159C113.535 45.7159 113.58 45.7159 113.624 45.7159C113.669 45.7159 113.713 45.7159 113.758 45.7159C113.802 45.7159 113.846 45.7159 113.89 45.7159C113.934 45.7159 113.978 45.7159 114.022 45.7159C114.065 45.7159 114.109 45.7159 114.152 45.7159C114.196 45.7159 114.239 45.7159 114.282 45.7159C114.326 45.7159 114.369 45.7159 114.412 45.7159C114.454 45.7159 114.497 45.7159 114.54 45.7159C114.583 45.7159 114.625 45.7159 114.667 45.7159C114.71 45.7159 114.752 45.7159 114.794 45.7159C114.836 45.7159 114.878 45.7159 114.92 45.7159C114.962 45.7159 115.004 45.7159 115.045 45.7159C115.087 45.7159 115.128 45.7159 115.17 45.7159C115.211 45.7159 115.252 45.7159 115.293 45.7159C115.334 45.7159 115.375 45.7159 115.416 45.7159C115.456 45.7159 115.497 45.7159 115.537 45.7159C115.578 45.7159 115.618 45.7159 115.658 45.7159C115.699 45.7159 115.739 45.7159 115.778 45.7159C115.818 45.7159 115.858 45.7159 115.898 45.7159C115.937 45.7159 115.977 45.7159 116.016 45.7159C116.055 45.7159 116.095 45.7159 116.134 45.7159C116.173 45.7159 116.212 45.7159 116.25 45.7159C116.289 45.7159 116.328 45.7159 116.366 45.7159C116.405 45.7159 116.443 45.7159 116.481 45.7159C116.519 45.7159 116.558 45.7159 116.595 45.7159C116.633 45.7159 116.671 45.7159 116.709 45.7159C116.746 45.7159 116.784 45.7159 116.821 45.7159C116.858 45.7159 116.896 45.7159 116.933 45.7159C116.97 45.7159 117.007 45.7159 117.043 45.7159C117.08 45.7159 117.117 45.7159 117.153 45.7159C117.189 45.7159 117.226 45.7159 117.262 45.7159C117.298 45.7159 117.334 45.7159 117.37 45.7159C117.406 45.7159 117.441 45.7159 117.477 45.7159C117.513 45.7159 117.548 45.7159 117.583 45.7159C117.619 45.7159 117.654 45.7159 117.689 45.7159C117.724 45.7159 117.758 45.7159 117.793 45.7159C117.828 45.7159 117.862 45.7159 117.897 45.7159C117.931 45.7159 117.965 45.7159 117.999 45.7159C118.033 45.7159 118.067 45.7159 118.101 45.7159C118.135 45.7159 118.168 45.7159 118.202 45.7159C118.235 45.7159 118.268 45.7159 118.302 45.7159C118.335 45.7159 118.368 45.7159 118.4 45.7159C118.433 45.7159 118.466 45.7159 118.499 45.7159C118.531 45.7159 118.563 45.7159 118.596 45.7159C118.628 45.7159 118.66 45.7159 118.692 45.7159C118.724 45.7159 118.755 45.7159 118.787 45.7159C118.819 45.7159 118.85 45.7159 118.881 45.7159C118.913 45.7159 118.944 45.7159 118.975 45.7159C119.006 45.7159 119.037 45.7159 119.067 45.7159C119.098 45.7159 119.128 45.7159 119.159 45.7159C119.189 45.7159 119.219 45.7159 119.249 45.7159C119.279 45.7159 119.309 45.7159 119.339 45.7159C119.369 45.7159 119.398 45.7159 119.427 45.7159C119.457 45.7159 119.486 45.7159 119.515 45.7159C119.544 45.7159 119.573 45.7159 119.602 45.7159C119.631 45.7159 119.659 45.7159 119.688 45.7159C119.716 45.7159 119.744 45.7159 119.772 45.7159C119.801 45.7159 119.828 45.7159 119.856 45.7159C119.884 45.7159 119.912 45.7159 119.939 45.7159C119.967 45.7159 119.994 45.7159 120.021 45.7159C120.048 45.7159 120.075 45.7159 120.102 45.7159C120.129 45.7159 120.155 45.7159 120.182 45.7159C120.208 45.7159 120.235 45.7159 120.261 45.7159C120.287 45.7159 120.313 45.7159 120.339 45.7159C120.364 45.7159 120.39 45.7159 120.416 45.7159C120.441 45.7159 120.466 45.7159 120.492 45.7159C120.517 45.7159 120.542 45.7159 120.566 45.7159C120.591 45.7159 120.616 45.7159 120.64 45.7159C120.665 45.7159 120.689 45.7159 120.713 45.7159C120.738 45.7159 120.761 45.7159 120.785 45.7159C120.809 45.7159 120.833 45.7159 120.856 45.7159C120.88 45.7159 120.903 45.7159 120.926 45.7159C120.949 45.7159 120.972 45.7159 120.995 45.7159C121.018 45.7159 121.04 45.7159 121.063 45.7159C121.085 45.7159 121.108 45.7159 121.13 45.7159C121.152 45.7159 121.174 45.7159 121.195 45.7159C121.217 45.7159 121.239 45.7159 121.26 45.7159C121.282 45.7159 121.303 45.7159 121.324 45.7159C121.345 45.7159 121.366 45.7159 121.387 45.7159C121.407 45.7159 121.428 45.7159 121.448 45.7159C121.469 45.7159 121.489 45.7159 121.509 45.7159C121.529 45.7159 121.549 45.7159 121.569 45.7159C121.588 45.7159 121.608 45.7159 121.627 45.7159C121.646 45.7159 121.666 45.7159 121.685 45.7159C121.703 45.7159 121.722 45.7159 121.741 45.7159C121.76 45.7159 121.778 45.7159 121.796 45.7159C121.815 45.7159 121.833 45.7159 121.851 45.7159C121.868 45.7159 121.886 45.7159 121.904 45.7159C121.921 45.7159 121.939 45.7159 121.956 45.7159C121.973 45.7159 121.99 45.7159 122.007 45.7159C122.024 45.7159 122.04 45.7159 122.057 45.7159C122.073 45.7159 122.09 45.7159 122.106 45.7159C122.122 45.7159 122.138 45.7159 122.154 45.7159C122.169 45.7159 122.185 45.7159 122.2 45.7159C122.216 45.7159 122.231 45.7159 122.246 45.7159C122.261 45.7159 122.276 45.7159 122.291 45.7159C122.305 45.7159 122.32 45.7159 122.334 45.7159C122.348 45.7159 122.362 45.7159 122.376 45.7159C122.39 45.7159 122.404 45.7159 122.418 45.7159C122.431 45.7159 122.445 45.7159 122.458 45.7159C122.471 45.7159 122.484 45.7159 122.497 45.7159C122.51 45.7159 122.522 45.7159 122.535 45.7159C122.547 45.7159 122.56 45.7159 122.572 45.7159C122.584 45.7159 122.596 45.7159 122.607 45.7159C122.619 45.7159 122.631 45.7159 122.642 45.7159C122.653 45.7159 122.664 45.7159 122.675 45.7159C122.686 45.7159 122.697 45.7159 122.708 45.7159C122.718 45.7159 122.729 45.7159 122.739 45.7159C122.749 45.7159 122.759 45.7159 122.769 45.7159C122.779 45.7159 122.788 45.7159 122.798 45.7159C122.807 45.7159 122.816 45.7159 122.826 45.7159C122.835 45.7159 122.843 45.7159 122.852 45.7159C122.861 45.7159 122.869 45.7159 122.878 45.7159C122.886 45.7159 122.894 45.7159 122.902 45.7159C122.91 45.7159 122.918 45.7159 122.925 45.7159C122.933 45.7159 122.94 45.7159 122.947 45.7159C122.954 45.7159 122.961 45.7159 122.968 45.7159C122.975 45.7159 122.981 45.7159 122.988 45.7159C122.994 45.7159 123 45.7159 123.006 45.7159C123.012 45.7159 123.018 45.7159 123.024 45.7159C123.029 45.7159 123.034 45.7159 123.04 45.7159C123.045 45.7159 123.05 45.7159 123.055 45.7159C123.059 45.7159 123.064 45.7159 123.068 45.7159C123.073 45.7159 123.077 45.7159 123.081 45.7159C123.085 45.7159 123.089 45.7159 123.093 45.7159C123.096 45.7159 123.1 45.7159 123.103 45.7159C123.106 45.7159 123.109 45.7159 123.112 45.7159C123.115 45.7159 123.117 45.7159 123.12 45.7159C123.122 45.7159 123.124 45.7159 123.126 45.7159C123.128 45.7159 123.13 45.7159 123.132 45.7159C123.133 45.7159 123.135 45.7159 123.136 45.7159C123.137 45.7159 123.138 45.7159 123.139 45.7159C123.14 45.7159 123.141 45.7159 123.141 45.7159C123.141 45.7159 123.142 45.7159 123.142 35.7148Z" fill="#0C8D57" mask="url(#path-3-outside-1_1_154)"/>
</svg>
