<svg width="32" height="32" viewBox="0 0 32 32" fill="none" xmlns="http://www.w3.org/2000/svg">
<g clip-path="url(#clip0_167_649)">
<path d="M16 2.66666C8.65329 2.66666 2.66663 8.65332 2.66663 16C2.66663 23.3467 8.65329 29.3333 16 29.3333C23.3466 29.3333 29.3333 23.3467 29.3333 16C29.3333 8.65332 23.3466 2.66666 16 2.66666ZM22.3733 12.9333L14.8133 20.4933C14.6266 20.68 14.3733 20.7867 14.1066 20.7867C13.84 20.7867 13.5866 20.68 13.4 20.4933L9.62663 16.72C9.23996 16.3333 9.23996 15.6933 9.62663 15.3067C10.0133 14.92 10.6533 14.92 11.04 15.3067L14.1066 18.3733L20.96 11.52C21.3466 11.1333 21.9866 11.1333 22.3733 11.52C22.76 11.9067 22.76 12.5333 22.3733 12.9333Z" fill="#1D272F"/>
</g>
<defs>
<clipPath id="clip0_167_649">
<rect width="32" height="32" fill="white"/>
</clipPath>
</defs>
</svg>
