<svg width="438" height="519" viewBox="0 0 438 519" fill="none" xmlns="http://www.w3.org/2000/svg">
<path d="M435.66 242.404L412.609 241.824L413.044 210.234L428.846 216.755C430.006 217.19 431.311 216.61 431.891 215.596C432.326 214.437 431.746 213.133 430.731 212.698L412.609 205.163C412.319 205.018 412.174 205.018 411.884 205.018C411.884 205.018 411.884 205.018 411.739 205.018H410.144L359.547 203.279C358.677 203.279 357.952 203.714 357.517 204.438L340.554 235.303C340.409 235.593 340.264 235.883 340.264 236.318L338.38 275.442L328.086 276.456L282.418 253.272L361.141 86.6296L391.152 100.83L408.404 119.378L369.115 151.403C368.1 152.127 367.955 153.576 368.825 154.59C369.26 155.17 369.985 155.46 370.565 155.46C371 155.46 371.58 155.315 372.015 154.88L383.323 145.751L409.999 168.067C410.434 168.357 410.869 168.646 411.449 168.646C412.029 168.646 412.754 168.357 413.189 167.777C414.059 166.763 413.914 165.458 412.899 164.589L386.803 142.708L396.516 134.738L425.657 165.893C426.092 166.328 426.672 166.618 427.252 166.618C427.832 166.618 428.411 166.473 428.846 166.038C429.716 165.169 429.861 163.72 428.991 162.85L399.996 131.985L429.281 108.076C430.296 107.351 430.441 105.902 429.571 104.888C428.846 103.873 427.397 103.728 426.382 104.598L411.739 116.48L394.052 97.4975C393.907 97.3526 393.617 97.0628 393.327 97.0628L362.881 82.7171L364.621 78.9495C367.52 72.7186 365.926 65.3284 360.706 60.8363L358.097 58.5178L391.152 3.5984C391.732 2.58406 391.442 1.135 390.427 0.555373C389.412 -0.0242507 387.962 0.265561 387.383 1.2799L354.762 55.4748L312.719 19.5381C311.124 18.2339 308.804 18.3788 307.354 19.9728C306.05 21.5667 306.195 23.8852 307.789 25.3343L355.922 66.4876C358.532 68.8061 359.402 72.4288 357.807 75.6167L275.314 250.084L273.574 253.851L182.963 445.417L168.32 430.347C168.03 430.057 167.74 429.912 167.45 429.622L138.019 413.248C138.599 413.103 139.034 412.668 139.324 412.089L144.254 402.38C144.398 402.235 144.398 402.09 144.398 401.945L165.71 316.161C165.855 315.581 165.71 315.001 165.42 314.422C165.13 313.842 164.551 313.552 163.971 313.408L95.3958 297.468C94.2359 297.178 92.9311 297.903 92.6412 299.207C92.3512 300.366 93.0761 301.67 94.3809 301.96L160.781 317.32L140.049 400.641L135.265 410.205C134.975 410.784 134.975 411.219 135.12 411.799L82.0577 382.383L102.355 342.968C103.949 340.07 104.094 336.592 103.08 333.405C101.92 330.217 99.7451 327.753 96.7006 326.304L76.2586 317.03C75.0988 316.451 73.794 317.03 73.214 318.189C72.6341 319.349 73.214 320.653 74.3739 321.232L94.8158 330.506C96.7006 331.376 98.1503 332.97 98.8752 334.854C99.6001 336.882 99.4552 338.911 98.4403 340.795L78.1433 380.209L5.79904 339.925C3.91432 338.911 1.73964 339.636 0.72479 341.374C-0.290059 343.258 0.434833 345.432 2.17458 346.446L163.246 435.998L179.338 452.517L179.483 452.662L152.372 510.045C151.502 511.929 152.227 514.247 154.112 515.117C154.692 515.407 155.127 515.551 155.707 515.551C157.157 515.551 158.461 514.682 159.186 513.378L183.688 461.646L285.898 518.305C286.477 518.594 287.057 518.739 287.782 518.739C289.087 518.739 290.392 518.015 291.117 516.856C292.132 514.972 291.407 512.798 289.667 511.784L187.022 454.836L257.047 306.597L284.883 320.653L245.014 389.193C244.434 390.208 244.724 391.657 245.883 392.236C246.173 392.381 246.608 392.526 247.043 392.526C247.768 392.526 248.638 392.092 249.073 391.367L267.05 360.502L295.756 377.021L275.894 413.103C273.574 417.305 275.024 422.522 279.084 424.985L328.956 455.85C330.406 456.72 332.001 457.154 333.74 457.154C334.465 457.154 335.335 457.009 336.06 456.865C338.38 456.285 340.409 454.546 341.569 452.517L361.866 414.842L385.353 428.318C387.672 429.622 389.267 431.796 389.847 434.259C390.427 436.867 390.137 439.476 388.687 441.649L365.926 478.021C365.781 478.166 365.781 478.311 365.636 478.456L355.052 509.031C354.617 510.19 355.342 511.494 356.502 511.929C356.792 512.074 356.937 512.074 357.227 512.074C358.097 512.074 359.112 511.494 359.402 510.48L369.84 480.194L392.457 444.113C394.486 440.78 395.066 437.012 394.196 433.245C393.327 429.477 390.862 426.434 387.527 424.406L301.845 375.137L316.343 348.765C316.923 347.605 316.488 346.301 315.473 345.722C314.313 345.142 313.009 345.577 312.429 346.591L297.931 372.819L269.225 356.3L290.102 320.508C290.392 319.928 290.537 319.349 290.247 318.769C290.102 318.189 289.667 317.61 289.087 317.32L259.077 302.25L280.243 257.329L326.347 280.659C326.636 280.804 327.071 280.949 327.361 280.949C327.506 280.949 327.506 280.949 327.651 280.949L340.554 279.644L426.092 282.687H426.237C427.397 282.687 428.411 281.673 428.556 280.514C428.556 279.21 427.687 278.195 426.382 278.195L342.874 275.152L344.614 236.897L360.706 207.771L408.549 209.365L408.114 241.679L393.182 241.389C392.022 241.389 390.862 242.404 390.862 243.563C390.862 244.867 391.877 245.881 393.037 245.881L409.274 246.316H411.014L435.37 246.896C436.53 246.896 437.545 245.881 437.69 244.722C437.835 243.418 436.82 242.404 435.66 242.404ZM299.815 379.05L357.952 412.523L337.655 450.344C337.075 451.503 336.06 452.228 334.9 452.517C333.74 452.807 332.436 452.662 331.421 451.938L281.548 421.073C279.519 419.769 278.794 417.305 279.953 415.132L299.815 379.05Z" fill="white" stroke="#BBB4B5" stroke-width="0.5206" stroke-miterlimit="10"/>
</svg>
