<svg width="12" height="12" viewBox="0 0 12 12" fill="none" xmlns="http://www.w3.org/2000/svg">
<path d="M11.2991 10.8612L10.4789 8.4H9.57893L10.0787 10.8H1.27913L1.77893 8.4H0.878927L0.0581272 10.8612C-0.150073 11.4876 0.218927 12 0.878927 12H10.4789C11.1389 12 11.5079 11.4876 11.2991 10.8612ZM8.67893 3C8.67893 2.20435 8.36286 1.44129 7.80025 0.87868C7.23764 0.316071 6.47458 0 5.67893 0C4.88328 0 4.12022 0.316071 3.55761 0.87868C2.995 1.44129 2.67893 2.20435 2.67893 3C2.67893 5.865 5.67893 9 5.67893 9C5.67893 9 8.67893 5.865 8.67893 3ZM4.05893 3.036C4.05893 2.1414 4.78373 1.4166 5.67893 1.4166C6.1085 1.4166 6.52047 1.58725 6.82423 1.891C7.12798 2.19475 7.29863 2.60673 7.29863 3.0363C7.29863 3.46587 7.12798 3.87785 6.82423 4.1816C6.52047 4.48535 6.1085 4.656 5.67893 4.656C5.24928 4.656 4.83722 4.48532 4.53341 4.18151C4.22961 3.8777 4.05893 3.46565 4.05893 3.036Z" fill="#004225"/>
</svg>
