<svg width="35" height="30" viewBox="0 0 35 30" fill="none" xmlns="http://www.w3.org/2000/svg">
<path fill-rule="evenodd" clip-rule="evenodd" d="M17.0952 27C24.6484 27 30.7714 21.6274 30.7714 15C30.7714 8.37258 24.6484 3 17.0952 3C9.54209 3 3.41905 8.37258 3.41905 15C3.41905 21.6274 9.54209 27 17.0952 27ZM17.0952 0C21.6292 0 25.9774 1.58035 29.1834 4.3934C32.3894 7.20644 34.1905 11.0218 34.1905 15C34.1905 23.2843 26.5367 30 17.0952 30C7.64157 30 0 23.25 0 15C0 6.71573 7.6538 0 17.0952 0ZM17.95 7.5V15.375L25.6429 19.38L24.3607 21.225L15.3857 16.5V7.5H17.95Z" fill="#004225"/>
<mask id="mask0_167_376" style="mask-type:luminance" maskUnits="userSpaceOnUse" x="0" y="0" width="35" height="30">
<path fill-rule="evenodd" clip-rule="evenodd" d="M17.0952 27C24.6484 27 30.7714 21.6274 30.7714 15C30.7714 8.37258 24.6484 3 17.0952 3C9.54209 3 3.41905 8.37258 3.41905 15C3.41905 21.6274 9.54209 27 17.0952 27ZM17.0952 0C21.6292 0 25.9774 1.58035 29.1834 4.3934C32.3894 7.20644 34.1905 11.0218 34.1905 15C34.1905 23.2843 26.5367 30 17.0952 30C7.64157 30 0 23.25 0 15C0 6.71573 7.6538 0 17.0952 0ZM17.95 7.5V15.375L25.6429 19.38L24.3607 21.225L15.3857 16.5V7.5H17.95Z" fill="white"/>
</mask>
<g mask="url(#mask0_167_376)">
</g>
</svg>
