<svg width="31" height="31" viewBox="0 0 31 31" fill="none" xmlns="http://www.w3.org/2000/svg">
<g filter="url(#filter0_d_1_358)">
<path d="M16.5958 3.55416C16.3052 3.26358 15.911 3.10034 15.5 3.10034C15.089 3.10034 14.6948 3.26358 14.4041 3.55416L3.55414 14.4042C3.27179 14.6965 3.11556 15.088 3.11909 15.4944C3.12262 15.9008 3.28564 16.2896 3.57302 16.577C3.8604 16.8644 4.24916 17.0274 4.65557 17.0309C5.06197 17.0344 5.4535 16.8782 5.74584 16.5959L6.19999 16.1417V26.35C6.19999 26.7611 6.36329 27.1553 6.65397 27.446C6.94465 27.7367 7.3389 27.9 7.74999 27.9H10.85C11.2611 27.9 11.6553 27.7367 11.946 27.446C12.2367 27.1553 12.4 26.7611 12.4 26.35V23.25C12.4 22.8389 12.5633 22.4447 12.854 22.154C13.1447 21.8633 13.5389 21.7 13.95 21.7H17.05C17.4611 21.7 17.8553 21.8633 18.146 22.154C18.4367 22.4447 18.6 22.8389 18.6 23.25V26.35C18.6 26.7611 18.7633 27.1553 19.054 27.446C19.3447 27.7367 19.7389 27.9 20.15 27.9H23.25C23.6611 27.9 24.0553 27.7367 24.346 27.446C24.6367 27.1553 24.8 26.7611 24.8 26.35V16.1417L25.2541 16.5959C25.5465 16.8782 25.938 17.0344 26.3444 17.0309C26.7508 17.0274 27.1396 16.8644 27.427 16.577C27.7143 16.2896 27.8774 15.9008 27.8809 15.4944C27.8844 15.088 27.7282 14.6965 27.4458 14.4042L16.5958 3.55416Z" fill="#004225"/>
</g>
<defs>
<filter id="filter0_d_1_358" x="-20" y="-14" width="71" height="71" filterUnits="userSpaceOnUse" color-interpolation-filters="sRGB">
<feFlood flood-opacity="0" result="BackgroundImageFix"/>
<feColorMatrix in="SourceAlpha" type="matrix" values="0 0 0 0 0 0 0 0 0 0 0 0 0 0 0 0 0 0 127 0" result="hardAlpha"/>
<feOffset dy="6"/>
<feGaussianBlur stdDeviation="10"/>
<feColorMatrix type="matrix" values="0 0 0 0 0.841667 0 0 0 0 0.219258 0 0 0 0 0 0 0 0 0.4 0"/>
<feBlend mode="normal" in2="BackgroundImageFix" result="effect1_dropShadow_1_358"/>
<feBlend mode="normal" in="SourceGraphic" in2="effect1_dropShadow_1_358" result="shape"/>
</filter>
</defs>
</svg>
